%TF.GenerationSoftware,KiCad,Pcbnew,8.0.6*%
%TF.CreationDate,2024-11-24T22:42:30+01:00*%
%TF.ProjectId,ecad,65636164-2e6b-4696-9361-645f70636258,rev?*%
%TF.SameCoordinates,Original*%
%TF.FileFunction,Copper,L4,Bot*%
%TF.FilePolarity,Positive*%
%FSLAX46Y46*%
G04 Gerber Fmt 4.6, Leading zero omitted, Abs format (unit mm)*
G04 Created by KiCad (PCBNEW 8.0.6) date 2024-11-24 22:42:30*
%MOMM*%
%LPD*%
G01*
G04 APERTURE LIST*
%TA.AperFunction,ComponentPad*%
%ADD10O,1.300000X2.300000*%
%TD*%
%TA.AperFunction,ComponentPad*%
%ADD11O,1.300000X2.600000*%
%TD*%
%TA.AperFunction,ComponentPad*%
%ADD12R,3.000000X3.000000*%
%TD*%
%TA.AperFunction,ComponentPad*%
%ADD13C,3.000000*%
%TD*%
%TA.AperFunction,ComponentPad*%
%ADD14C,2.600000*%
%TD*%
%TA.AperFunction,ConnectorPad*%
%ADD15C,4.400000*%
%TD*%
%TA.AperFunction,ComponentPad*%
%ADD16R,1.700000X1.700000*%
%TD*%
%TA.AperFunction,ComponentPad*%
%ADD17O,1.700000X1.700000*%
%TD*%
%TA.AperFunction,ViaPad*%
%ADD18C,0.700000*%
%TD*%
%TA.AperFunction,ViaPad*%
%ADD19C,0.600000*%
%TD*%
%TA.AperFunction,Conductor*%
%ADD20C,0.200000*%
%TD*%
G04 APERTURE END LIST*
D10*
%TO.P,J1,S1,SHIELD*%
%TO.N,GND*%
X108870000Y-152485000D03*
D11*
X108870000Y-148660000D03*
D10*
X100230000Y-152485000D03*
D11*
X100230000Y-148660000D03*
%TD*%
D12*
%TO.P,J3,1,Pin_1*%
%TO.N,VCC*%
X116900000Y-161015000D03*
D13*
%TO.P,J3,2,Pin_2*%
%TO.N,GND*%
X116900000Y-155935000D03*
%TD*%
D14*
%TO.P,H2,1*%
%TO.N,N/C*%
X91300000Y-193175000D03*
D15*
X91300000Y-193175000D03*
%TD*%
D14*
%TO.P,H4,1*%
%TO.N,N/C*%
X91300000Y-150175000D03*
D15*
X91300000Y-150175000D03*
%TD*%
D14*
%TO.P,H3,1*%
%TO.N,N/C*%
X117800000Y-150175000D03*
D15*
X117800000Y-150175000D03*
%TD*%
D14*
%TO.P,H1,1*%
%TO.N,N/C*%
X117800000Y-193175000D03*
D15*
X117800000Y-193175000D03*
%TD*%
D16*
%TO.P,J4,1,Pin_1*%
%TO.N,unconnected-(J4-Pin_1-Pad1)*%
X116510000Y-188725000D03*
D17*
%TO.P,J4,2,Pin_2*%
%TO.N,unconnected-(J4-Pin_2-Pad2)*%
X119050000Y-188725000D03*
%TO.P,J4,3,Pin_3*%
%TO.N,unconnected-(J4-Pin_3-Pad3)*%
X116510000Y-186185000D03*
%TO.P,J4,4,Pin_4*%
%TO.N,unconnected-(J4-Pin_4-Pad4)*%
X119050000Y-186185000D03*
%TO.P,J4,5,Pin_5*%
%TO.N,unconnected-(J4-Pin_5-Pad5)*%
X116510000Y-183645000D03*
%TO.P,J4,6,Pin_6*%
%TO.N,unconnected-(J4-Pin_6-Pad6)*%
X119050000Y-183645000D03*
%TO.P,J4,7,Pin_7*%
%TO.N,unconnected-(J4-Pin_7-Pad7)*%
X116510000Y-181105000D03*
%TO.P,J4,8,Pin_8*%
%TO.N,unconnected-(J4-Pin_8-Pad8)*%
X119050000Y-181105000D03*
%TO.P,J4,9,Pin_9*%
%TO.N,unconnected-(J4-Pin_9-Pad9)*%
X116510000Y-178565000D03*
%TO.P,J4,10,Pin_10*%
%TO.N,unconnected-(J4-Pin_10-Pad10)*%
X119050000Y-178565000D03*
%TO.P,J4,11,Pin_11*%
%TO.N,unconnected-(J4-Pin_11-Pad11)*%
X116510000Y-176025000D03*
%TO.P,J4,12,Pin_12*%
%TO.N,unconnected-(J4-Pin_12-Pad12)*%
X119050000Y-176025000D03*
%TO.P,J4,13,Pin_13*%
%TO.N,unconnected-(J4-Pin_13-Pad13)*%
X116510000Y-173485000D03*
%TO.P,J4,14,Pin_14*%
%TO.N,unconnected-(J4-Pin_14-Pad14)*%
X119050000Y-173485000D03*
%TO.P,J4,15,Pin_15*%
%TO.N,unconnected-(J4-Pin_15-Pad15)*%
X116510000Y-170945000D03*
%TO.P,J4,16,Pin_16*%
%TO.N,unconnected-(J4-Pin_16-Pad16)*%
X119050000Y-170945000D03*
%TO.P,J4,17,Pin_17*%
%TO.N,unconnected-(J4-Pin_17-Pad17)*%
X116510000Y-168405000D03*
%TO.P,J4,18,Pin_18*%
%TO.N,unconnected-(J4-Pin_18-Pad18)*%
X119050000Y-168405000D03*
%TO.P,J4,19,Pin_19*%
%TO.N,unconnected-(J4-Pin_19-Pad19)*%
X116510000Y-165865000D03*
%TO.P,J4,20,Pin_20*%
%TO.N,unconnected-(J4-Pin_20-Pad20)*%
X119050000Y-165865000D03*
%TD*%
D18*
%TO.N,GND*%
X101150000Y-157425000D03*
X100350000Y-157425000D03*
X100350000Y-155125000D03*
X101150000Y-155125000D03*
X114200000Y-176625000D03*
%TO.N,Net-(U2-OTP)*%
X101050000Y-163325000D03*
%TO.N,Net-(J1-CC1)*%
X105800000Y-151690000D03*
%TO.N,Net-(J1-CC2)*%
X96909620Y-152034620D03*
%TO.N,Net-(J1-CC1)*%
X96000000Y-152025000D03*
%TO.N,GND*%
X95349999Y-152878907D03*
%TO.N,Net-(J1-CC2)*%
X102800000Y-151675000D03*
%TO.N,GND*%
X113200000Y-148775000D03*
%TO.N,Net-(U2-OTP)*%
X105700000Y-154675000D03*
%TO.N,+3V3*%
X109400000Y-175275000D03*
X108600000Y-175275000D03*
X107800000Y-175275000D03*
X107000000Y-175275000D03*
X106200000Y-175275000D03*
%TO.N,GND*%
X108600000Y-171375000D03*
X107800000Y-171375000D03*
X107000000Y-171375000D03*
X106200000Y-171375000D03*
X107800000Y-170275000D03*
X107000000Y-170275000D03*
X98165000Y-162625000D03*
X101000000Y-164575000D03*
X106200000Y-165025000D03*
X103400000Y-154675000D03*
D19*
%TO.N,Net-(U2-SDA)*%
X102899994Y-158578458D03*
%TO.N,Net-(U2-SCL)*%
X102100000Y-158575000D03*
D18*
%TO.N,GND*%
X106200000Y-170275000D03*
X95800000Y-158325000D03*
X97600000Y-158325000D03*
%TD*%
D20*
%TO.N,Net-(U2-OTP)*%
X103850000Y-163325000D02*
X105700000Y-161475000D01*
X101050000Y-163325000D02*
X103850000Y-163325000D01*
X105700000Y-161475000D02*
X105700000Y-154675000D01*
%TO.N,Net-(J1-CC1)*%
X104535000Y-150425000D02*
X97600000Y-150425000D01*
X97600000Y-150425000D02*
X96000000Y-152025000D01*
X105800000Y-151690000D02*
X104535000Y-150425000D01*
%TO.N,Net-(J1-CC2)*%
X98069240Y-150875000D02*
X102000000Y-150875000D01*
X102000000Y-150875000D02*
X102800000Y-151675000D01*
X96909620Y-152034620D02*
X98069240Y-150875000D01*
%TD*%
M02*
