%TF.GenerationSoftware,KiCad,Pcbnew,8.0.6*%
%TF.CreationDate,2024-11-24T23:38:19+01:00*%
%TF.ProjectId,ecad,65636164-2e6b-4696-9361-645f70636258,rev?*%
%TF.SameCoordinates,Original*%
%TF.FileFunction,Profile,NP*%
%FSLAX46Y46*%
G04 Gerber Fmt 4.6, Leading zero omitted, Abs format (unit mm)*
G04 Created by KiCad (PCBNEW 8.0.6) date 2024-11-24 23:38:19*
%MOMM*%
%LPD*%
G01*
G04 APERTURE LIST*
%TA.AperFunction,Profile*%
%ADD10C,0.050000*%
%TD*%
%ADD11C,0.150000*%
G04 APERTURE END LIST*
D10*
X117800000Y-146675000D02*
G75*
G02*
X121300000Y-150175000I0J-3500000D01*
G01*
X121300000Y-150175000D02*
X121300000Y-193175000D01*
X91300000Y-196675000D02*
G75*
G02*
X87800000Y-193175000I0J3500000D01*
G01*
X91300000Y-146675000D02*
X117800000Y-146675000D01*
X91300000Y-196675000D02*
X117800000Y-196675000D01*
X121300000Y-193175000D02*
G75*
G02*
X117800000Y-196675000I-3500000J0D01*
G01*
X87800000Y-150175000D02*
X87800000Y-193175000D01*
X87800000Y-150175000D02*
G75*
G02*
X91300000Y-146675000I3500000J0D01*
G01*
D11*
X99808334Y-198329818D02*
X100427381Y-198329818D01*
X100427381Y-198329818D02*
X100094048Y-198710770D01*
X100094048Y-198710770D02*
X100236905Y-198710770D01*
X100236905Y-198710770D02*
X100332143Y-198758389D01*
X100332143Y-198758389D02*
X100379762Y-198806008D01*
X100379762Y-198806008D02*
X100427381Y-198901246D01*
X100427381Y-198901246D02*
X100427381Y-199139341D01*
X100427381Y-199139341D02*
X100379762Y-199234579D01*
X100379762Y-199234579D02*
X100332143Y-199282199D01*
X100332143Y-199282199D02*
X100236905Y-199329818D01*
X100236905Y-199329818D02*
X99951191Y-199329818D01*
X99951191Y-199329818D02*
X99855953Y-199282199D01*
X99855953Y-199282199D02*
X99808334Y-199234579D01*
X100760715Y-198329818D02*
X101379762Y-198329818D01*
X101379762Y-198329818D02*
X101046429Y-198710770D01*
X101046429Y-198710770D02*
X101189286Y-198710770D01*
X101189286Y-198710770D02*
X101284524Y-198758389D01*
X101284524Y-198758389D02*
X101332143Y-198806008D01*
X101332143Y-198806008D02*
X101379762Y-198901246D01*
X101379762Y-198901246D02*
X101379762Y-199139341D01*
X101379762Y-199139341D02*
X101332143Y-199234579D01*
X101332143Y-199234579D02*
X101284524Y-199282199D01*
X101284524Y-199282199D02*
X101189286Y-199329818D01*
X101189286Y-199329818D02*
X100903572Y-199329818D01*
X100903572Y-199329818D02*
X100808334Y-199282199D01*
X100808334Y-199282199D02*
X100760715Y-199234579D01*
X101808334Y-199234579D02*
X101855953Y-199282199D01*
X101855953Y-199282199D02*
X101808334Y-199329818D01*
X101808334Y-199329818D02*
X101760715Y-199282199D01*
X101760715Y-199282199D02*
X101808334Y-199234579D01*
X101808334Y-199234579D02*
X101808334Y-199329818D01*
X102189286Y-198329818D02*
X102808333Y-198329818D01*
X102808333Y-198329818D02*
X102475000Y-198710770D01*
X102475000Y-198710770D02*
X102617857Y-198710770D01*
X102617857Y-198710770D02*
X102713095Y-198758389D01*
X102713095Y-198758389D02*
X102760714Y-198806008D01*
X102760714Y-198806008D02*
X102808333Y-198901246D01*
X102808333Y-198901246D02*
X102808333Y-199139341D01*
X102808333Y-199139341D02*
X102760714Y-199234579D01*
X102760714Y-199234579D02*
X102713095Y-199282199D01*
X102713095Y-199282199D02*
X102617857Y-199329818D01*
X102617857Y-199329818D02*
X102332143Y-199329818D01*
X102332143Y-199329818D02*
X102236905Y-199282199D01*
X102236905Y-199282199D02*
X102189286Y-199234579D01*
X103713095Y-198329818D02*
X103236905Y-198329818D01*
X103236905Y-198329818D02*
X103189286Y-198806008D01*
X103189286Y-198806008D02*
X103236905Y-198758389D01*
X103236905Y-198758389D02*
X103332143Y-198710770D01*
X103332143Y-198710770D02*
X103570238Y-198710770D01*
X103570238Y-198710770D02*
X103665476Y-198758389D01*
X103665476Y-198758389D02*
X103713095Y-198806008D01*
X103713095Y-198806008D02*
X103760714Y-198901246D01*
X103760714Y-198901246D02*
X103760714Y-199139341D01*
X103760714Y-199139341D02*
X103713095Y-199234579D01*
X103713095Y-199234579D02*
X103665476Y-199282199D01*
X103665476Y-199282199D02*
X103570238Y-199329818D01*
X103570238Y-199329818D02*
X103332143Y-199329818D01*
X103332143Y-199329818D02*
X103236905Y-199282199D01*
X103236905Y-199282199D02*
X103189286Y-199234579D01*
X104379762Y-198329818D02*
X104475000Y-198329818D01*
X104475000Y-198329818D02*
X104570238Y-198377437D01*
X104570238Y-198377437D02*
X104617857Y-198425056D01*
X104617857Y-198425056D02*
X104665476Y-198520294D01*
X104665476Y-198520294D02*
X104713095Y-198710770D01*
X104713095Y-198710770D02*
X104713095Y-198948865D01*
X104713095Y-198948865D02*
X104665476Y-199139341D01*
X104665476Y-199139341D02*
X104617857Y-199234579D01*
X104617857Y-199234579D02*
X104570238Y-199282199D01*
X104570238Y-199282199D02*
X104475000Y-199329818D01*
X104475000Y-199329818D02*
X104379762Y-199329818D01*
X104379762Y-199329818D02*
X104284524Y-199282199D01*
X104284524Y-199282199D02*
X104236905Y-199234579D01*
X104236905Y-199234579D02*
X104189286Y-199139341D01*
X104189286Y-199139341D02*
X104141667Y-198948865D01*
X104141667Y-198948865D02*
X104141667Y-198710770D01*
X104141667Y-198710770D02*
X104189286Y-198520294D01*
X104189286Y-198520294D02*
X104236905Y-198425056D01*
X104236905Y-198425056D02*
X104284524Y-198377437D01*
X104284524Y-198377437D02*
X104379762Y-198329818D01*
X105332143Y-198329818D02*
X105427381Y-198329818D01*
X105427381Y-198329818D02*
X105522619Y-198377437D01*
X105522619Y-198377437D02*
X105570238Y-198425056D01*
X105570238Y-198425056D02*
X105617857Y-198520294D01*
X105617857Y-198520294D02*
X105665476Y-198710770D01*
X105665476Y-198710770D02*
X105665476Y-198948865D01*
X105665476Y-198948865D02*
X105617857Y-199139341D01*
X105617857Y-199139341D02*
X105570238Y-199234579D01*
X105570238Y-199234579D02*
X105522619Y-199282199D01*
X105522619Y-199282199D02*
X105427381Y-199329818D01*
X105427381Y-199329818D02*
X105332143Y-199329818D01*
X105332143Y-199329818D02*
X105236905Y-199282199D01*
X105236905Y-199282199D02*
X105189286Y-199234579D01*
X105189286Y-199234579D02*
X105141667Y-199139341D01*
X105141667Y-199139341D02*
X105094048Y-198948865D01*
X105094048Y-198948865D02*
X105094048Y-198710770D01*
X105094048Y-198710770D02*
X105141667Y-198520294D01*
X105141667Y-198520294D02*
X105189286Y-198425056D01*
X105189286Y-198425056D02*
X105236905Y-198377437D01*
X105236905Y-198377437D02*
X105332143Y-198329818D01*
X106855953Y-199329818D02*
X106855953Y-198663151D01*
X106855953Y-198758389D02*
X106903572Y-198710770D01*
X106903572Y-198710770D02*
X106998810Y-198663151D01*
X106998810Y-198663151D02*
X107141667Y-198663151D01*
X107141667Y-198663151D02*
X107236905Y-198710770D01*
X107236905Y-198710770D02*
X107284524Y-198806008D01*
X107284524Y-198806008D02*
X107284524Y-199329818D01*
X107284524Y-198806008D02*
X107332143Y-198710770D01*
X107332143Y-198710770D02*
X107427381Y-198663151D01*
X107427381Y-198663151D02*
X107570238Y-198663151D01*
X107570238Y-198663151D02*
X107665477Y-198710770D01*
X107665477Y-198710770D02*
X107713096Y-198806008D01*
X107713096Y-198806008D02*
X107713096Y-199329818D01*
X108189286Y-199329818D02*
X108189286Y-198663151D01*
X108189286Y-198758389D02*
X108236905Y-198710770D01*
X108236905Y-198710770D02*
X108332143Y-198663151D01*
X108332143Y-198663151D02*
X108475000Y-198663151D01*
X108475000Y-198663151D02*
X108570238Y-198710770D01*
X108570238Y-198710770D02*
X108617857Y-198806008D01*
X108617857Y-198806008D02*
X108617857Y-199329818D01*
X108617857Y-198806008D02*
X108665476Y-198710770D01*
X108665476Y-198710770D02*
X108760714Y-198663151D01*
X108760714Y-198663151D02*
X108903571Y-198663151D01*
X108903571Y-198663151D02*
X108998810Y-198710770D01*
X108998810Y-198710770D02*
X109046429Y-198806008D01*
X109046429Y-198806008D02*
X109046429Y-199329818D01*
D10*
X87800000Y-197175000D02*
X87800000Y-200611419D01*
X121150000Y-197175000D02*
X121150000Y-200611419D01*
X87800000Y-200024999D02*
X121150000Y-200024999D01*
X87800000Y-200024999D02*
X121150000Y-200024999D01*
X87800000Y-200024999D02*
X88926504Y-199438578D01*
X87800000Y-200024999D02*
X88926504Y-200611420D01*
X121150000Y-200024999D02*
X120023496Y-200611420D01*
X121150000Y-200024999D02*
X120023496Y-199438578D01*
M02*
