M48
; DRILL file {KiCad 8.0.6} date 2024-11-24T22:42:33+0100
; FORMAT={-:-/ absolute / inch / decimal}
; #@! TF.CreationDate,2024-11-24T22:42:33+01:00
; #@! TF.GenerationSoftware,Kicad,Pcbnew,8.0.6
; #@! TF.FileFunction,Plated,1,4,PTH
FMAT,2
INCH
; #@! TA.AperFunction,Plated,PTH,ViaDrill
T1C0.0118
; #@! TA.AperFunction,Plated,PTH,ComponentDrill
T2C0.0236
; #@! TA.AperFunction,Plated,PTH,ComponentDrill
T3C0.0394
; #@! TA.AperFunction,Plated,PTH,ComponentDrill
T4C0.0598
; #@! TA.AperFunction,Plated,PTH,ComponentDrill
T5C0.0866
%
G90
G05
T1
X3.7539Y-6.0189
X3.7717Y-6.2333
X3.7795Y-5.9852
X3.8153Y-5.9856
X3.8425Y-6.2333
X3.8648Y-6.4026
X3.9508Y-6.1073
X3.9508Y-6.1978
X3.9764Y-6.4793
X3.9783Y-6.4301
X3.9823Y-6.1073
X3.9823Y-6.1978
X4.0197Y-6.2431
X4.0472Y-5.9715
X4.0512Y-6.2432
X4.0709Y-6.0896
X4.1614Y-6.0896
X4.1654Y-5.972
X4.1811Y-6.497
X4.1811Y-6.7037
X4.1811Y-6.747
X4.1811Y-6.9006
X4.2126Y-6.7037
X4.2126Y-6.747
X4.2126Y-6.9006
X4.2441Y-6.7037
X4.2441Y-6.747
X4.2441Y-6.9006
X4.2756Y-6.747
X4.2756Y-6.9006
X4.3071Y-6.9006
X4.4567Y-5.8573
X4.4961Y-6.9537
T3
X4.587Y-6.5301
X4.587Y-6.6301
X4.587Y-6.7301
X4.587Y-6.8301
X4.587Y-6.9301
X4.587Y-7.0301
X4.587Y-7.1301
X4.587Y-7.2301
X4.587Y-7.3301
X4.587Y-7.4301
X4.687Y-6.5301
X4.687Y-6.6301
X4.687Y-6.7301
X4.687Y-6.8301
X4.687Y-6.9301
X4.687Y-7.0301
X4.687Y-7.1301
X4.687Y-7.2301
X4.687Y-7.3301
X4.687Y-7.4301
T4
X4.6024Y-6.1392
X4.6024Y-6.3392
T5
X3.5945Y-5.9124
X3.5945Y-7.6053
X4.6378Y-5.9124
X4.6378Y-7.6053
T2
G00X3.9461Y-5.8783
M15
G01X3.9461Y-5.8272
M16
G05
G00X3.9461Y-6.023
M15
G01X3.9461Y-5.9837
M16
G05
G00X4.2862Y-5.8783
M15
G01X4.2862Y-5.8272
M16
G05
G00X4.2862Y-6.023
M15
G01X4.2862Y-5.9837
M16
G05
M30
