%TF.GenerationSoftware,KiCad,Pcbnew,8.0.6*%
%TF.CreationDate,2024-11-24T22:42:30+01:00*%
%TF.ProjectId,ecad,65636164-2e6b-4696-9361-645f70636258,rev?*%
%TF.SameCoordinates,Original*%
%TF.FileFunction,Soldermask,Top*%
%TF.FilePolarity,Negative*%
%FSLAX46Y46*%
G04 Gerber Fmt 4.6, Leading zero omitted, Abs format (unit mm)*
G04 Created by KiCad (PCBNEW 8.0.6) date 2024-11-24 22:42:30*
%MOMM*%
%LPD*%
G01*
G04 APERTURE LIST*
G04 Aperture macros list*
%AMRoundRect*
0 Rectangle with rounded corners*
0 $1 Rounding radius*
0 $2 $3 $4 $5 $6 $7 $8 $9 X,Y pos of 4 corners*
0 Add a 4 corners polygon primitive as box body*
4,1,4,$2,$3,$4,$5,$6,$7,$8,$9,$2,$3,0*
0 Add four circle primitives for the rounded corners*
1,1,$1+$1,$2,$3*
1,1,$1+$1,$4,$5*
1,1,$1+$1,$6,$7*
1,1,$1+$1,$8,$9*
0 Add four rect primitives between the rounded corners*
20,1,$1+$1,$2,$3,$4,$5,0*
20,1,$1+$1,$4,$5,$6,$7,0*
20,1,$1+$1,$6,$7,$8,$9,0*
20,1,$1+$1,$8,$9,$2,$3,0*%
%AMFreePoly0*
4,1,17,1.395000,0.765000,0.855000,0.765000,0.855000,0.535000,1.395000,0.535000,1.395000,0.115000,0.855000,0.115000,0.855000,-0.115000,1.395000,-0.115000,1.395000,-0.535000,0.855000,-0.535000,0.855000,-0.765000,1.395000,-0.765000,1.395000,-1.185000,-0.855000,-1.185000,-0.855000,1.185000,1.395000,1.185000,1.395000,0.765000,1.395000,0.765000,$1*%
%AMFreePoly1*
4,1,6,0.725000,-0.725000,-0.725000,-0.725000,-0.725000,0.125000,-0.125000,0.725000,0.725000,0.725000,0.725000,-0.725000,0.725000,-0.725000,$1*%
G04 Aperture macros list end*
%ADD10C,0.600000*%
%ADD11R,1.000000X2.000000*%
%ADD12O,0.850000X0.600000*%
%ADD13R,0.520000X1.000000*%
%ADD14R,0.270000X1.000000*%
%ADD15O,1.300000X2.300000*%
%ADD16O,1.300000X2.600000*%
%ADD17RoundRect,0.062500X-0.062500X0.375000X-0.062500X-0.375000X0.062500X-0.375000X0.062500X0.375000X0*%
%ADD18RoundRect,0.062500X-0.375000X0.062500X-0.375000X-0.062500X0.375000X-0.062500X0.375000X0.062500X0*%
%ADD19R,2.600000X2.600000*%
%ADD20RoundRect,0.135000X-0.135000X-0.185000X0.135000X-0.185000X0.135000X0.185000X-0.135000X0.185000X0*%
%ADD21R,3.000000X3.000000*%
%ADD22C,3.000000*%
%ADD23RoundRect,0.147500X0.147500X0.172500X-0.147500X0.172500X-0.147500X-0.172500X0.147500X-0.172500X0*%
%ADD24RoundRect,0.250000X0.250000X0.475000X-0.250000X0.475000X-0.250000X-0.475000X0.250000X-0.475000X0*%
%ADD25RoundRect,0.135000X0.185000X-0.135000X0.185000X0.135000X-0.185000X0.135000X-0.185000X-0.135000X0*%
%ADD26RoundRect,0.250000X0.475000X-0.250000X0.475000X0.250000X-0.475000X0.250000X-0.475000X-0.250000X0*%
%ADD27RoundRect,0.135000X-0.185000X0.135000X-0.185000X-0.135000X0.185000X-0.135000X0.185000X0.135000X0*%
%ADD28RoundRect,0.135000X0.135000X0.185000X-0.135000X0.185000X-0.135000X-0.185000X0.135000X-0.185000X0*%
%ADD29C,2.600000*%
%ADD30C,4.400000*%
%ADD31RoundRect,0.250000X-0.475000X0.250000X-0.475000X-0.250000X0.475000X-0.250000X0.475000X0.250000X0*%
%ADD32RoundRect,0.140000X0.140000X0.170000X-0.140000X0.170000X-0.140000X-0.170000X0.140000X-0.170000X0*%
%ADD33RoundRect,0.105000X0.105000X-0.245000X0.105000X0.245000X-0.105000X0.245000X-0.105000X-0.245000X0*%
%ADD34FreePoly0,90.000000*%
%ADD35RoundRect,0.147500X-0.172500X0.147500X-0.172500X-0.147500X0.172500X-0.147500X0.172500X0.147500X0*%
%ADD36RoundRect,0.075000X-0.075000X-0.200000X0.075000X-0.200000X0.075000X0.200000X-0.075000X0.200000X0*%
%ADD37RoundRect,0.140000X-0.170000X0.140000X-0.170000X-0.140000X0.170000X-0.140000X0.170000X0.140000X0*%
%ADD38RoundRect,0.140000X0.170000X-0.140000X0.170000X0.140000X-0.170000X0.140000X-0.170000X-0.140000X0*%
%ADD39RoundRect,0.105000X-0.105000X0.245000X-0.105000X-0.245000X0.105000X-0.245000X0.105000X0.245000X0*%
%ADD40FreePoly0,270.000000*%
%ADD41R,0.700000X0.700000*%
%ADD42R,1.450000X1.450000*%
%ADD43FreePoly1,180.000000*%
%ADD44R,0.400000X0.800000*%
%ADD45R,0.800000X0.400000*%
%ADD46RoundRect,0.150000X-0.150000X0.512500X-0.150000X-0.512500X0.150000X-0.512500X0.150000X0.512500X0*%
%ADD47RoundRect,0.140000X-0.140000X-0.170000X0.140000X-0.170000X0.140000X0.170000X-0.140000X0.170000X0*%
%ADD48RoundRect,0.250000X-0.312500X-0.625000X0.312500X-0.625000X0.312500X0.625000X-0.312500X0.625000X0*%
%ADD49R,3.400000X1.300000*%
%ADD50RoundRect,0.087500X0.087500X-0.537500X0.087500X0.537500X-0.087500X0.537500X-0.087500X-0.537500X0*%
%ADD51R,1.000000X0.900000*%
%ADD52R,1.700000X1.700000*%
%ADD53O,1.700000X1.700000*%
G04 APERTURE END LIST*
D10*
%TO.C,J1*%
X107550000Y-151760000D03*
D11*
X105950000Y-148660000D03*
X103150000Y-148660000D03*
D12*
X101550000Y-151760000D03*
D13*
X107650000Y-152860000D03*
X106900000Y-152860000D03*
D14*
X106300000Y-152860000D03*
X104800000Y-152860000D03*
X103800000Y-152860000D03*
X102800000Y-152860000D03*
D13*
X102200000Y-152860000D03*
X101450000Y-152860000D03*
X101450000Y-152860000D03*
X102200000Y-152860000D03*
D14*
X103300000Y-152860000D03*
X104300000Y-152860000D03*
X105300000Y-152860000D03*
X105800000Y-152860000D03*
D13*
X106900000Y-152860000D03*
X107650000Y-152860000D03*
D15*
X108870000Y-152485000D03*
D16*
X108870000Y-148660000D03*
D15*
X100230000Y-152485000D03*
D16*
X100230000Y-148660000D03*
%TD*%
D17*
%TO.C,U2*%
X104250000Y-159437500D03*
X103750000Y-159437500D03*
X103250000Y-159437500D03*
X102750000Y-159437500D03*
X102250000Y-159437500D03*
X101750000Y-159437500D03*
D18*
X101062500Y-160125000D03*
X101062500Y-160625000D03*
X101062500Y-161125000D03*
X101062500Y-161625000D03*
X101062500Y-162125000D03*
X101062500Y-162625000D03*
D17*
X101750000Y-163312500D03*
X102250000Y-163312500D03*
X102750000Y-163312500D03*
X103250000Y-163312500D03*
X103750000Y-163312500D03*
X104250000Y-163312500D03*
D18*
X104937500Y-162625000D03*
X104937500Y-162125000D03*
X104937500Y-161625000D03*
X104937500Y-161125000D03*
X104937500Y-160625000D03*
X104937500Y-160125000D03*
D19*
X103000000Y-161375000D03*
%TD*%
D20*
%TO.C,R18*%
X101230000Y-179075000D03*
X102250000Y-179075000D03*
%TD*%
D21*
%TO.C,J3*%
X116900000Y-161015000D03*
D22*
X116900000Y-155935000D03*
%TD*%
D23*
%TO.C,D1*%
X112085000Y-148775000D03*
X111115000Y-148775000D03*
%TD*%
D24*
%TO.C,C1*%
X102650000Y-156275000D03*
X100750000Y-156275000D03*
%TD*%
D25*
%TO.C,R8*%
X99502500Y-160985000D03*
X99502500Y-159965000D03*
%TD*%
D26*
%TO.C,C9*%
X108700000Y-174225000D03*
X108700000Y-172325000D03*
%TD*%
D27*
%TO.C,R11*%
X98525000Y-173215000D03*
X98525000Y-174235000D03*
%TD*%
%TO.C,R4*%
X95800000Y-156565000D03*
X95800000Y-157585000D03*
%TD*%
D28*
%TO.C,NTC1*%
X104040000Y-154675000D03*
X105060000Y-154675000D03*
%TD*%
D29*
%TO.C,H2*%
X91300000Y-193175000D03*
D30*
X91300000Y-193175000D03*
%TD*%
D31*
%TO.C,C4*%
X109000000Y-168525000D03*
X109000000Y-170425000D03*
%TD*%
D28*
%TO.C,R9*%
X107209999Y-161475000D03*
X106190001Y-161475000D03*
%TD*%
D27*
%TO.C,R15*%
X112450000Y-176615000D03*
X112450000Y-177635000D03*
%TD*%
D32*
%TO.C,C2*%
X99830000Y-162625000D03*
X98870000Y-162625000D03*
%TD*%
D33*
%TO.C,Q2*%
X108875000Y-161605000D03*
X109525000Y-161605000D03*
X110175000Y-161605000D03*
X110825000Y-161605000D03*
D34*
X109850000Y-159650000D03*
%TD*%
D27*
%TO.C,R1*%
X95100000Y-162365000D03*
X95100000Y-163385000D03*
%TD*%
D35*
%TO.C,D2*%
X98502500Y-159990000D03*
X98502500Y-160960000D03*
%TD*%
D36*
%TO.C,U1*%
X94350000Y-154660000D03*
X94850000Y-154660000D03*
X95350000Y-154660000D03*
X95850000Y-154660000D03*
X96350000Y-154660000D03*
X96350000Y-153890000D03*
X95850000Y-153890000D03*
X95350000Y-153890000D03*
X94850000Y-153890000D03*
X94350000Y-153890000D03*
%TD*%
D37*
%TO.C,C5*%
X106200000Y-163395000D03*
X106200000Y-164355000D03*
%TD*%
D20*
%TO.C,R17*%
X81990000Y-190875000D03*
X83010000Y-190875000D03*
%TD*%
%TO.C,R3*%
X112110000Y-147775000D03*
X111090000Y-147775000D03*
%TD*%
D29*
%TO.C,H4*%
X91300000Y-150175000D03*
D30*
X91300000Y-150175000D03*
%TD*%
D38*
%TO.C,C8*%
X114100000Y-169955000D03*
X114100000Y-168995000D03*
%TD*%
D32*
%TO.C,C3*%
X102630000Y-164575000D03*
X101670000Y-164575000D03*
%TD*%
D35*
%TO.C,D3*%
X113450000Y-176640000D03*
X113450000Y-177610000D03*
%TD*%
D29*
%TO.C,H3*%
X117800000Y-150175000D03*
D30*
X117800000Y-150175000D03*
%TD*%
D25*
%TO.C,R13*%
X98525000Y-176935000D03*
X98525000Y-175915000D03*
%TD*%
D29*
%TO.C,H1*%
X117800000Y-193175000D03*
D30*
X117800000Y-193175000D03*
%TD*%
D39*
%TO.C,Q1*%
X110825000Y-162995000D03*
X110175000Y-162995000D03*
X109525000Y-162995000D03*
X108875000Y-162995000D03*
D40*
X109850000Y-164950000D03*
%TD*%
D41*
%TO.C,U6*%
X110500000Y-190425000D03*
X110500000Y-180525000D03*
X98600000Y-180525000D03*
X98600000Y-190425000D03*
D42*
X102575000Y-183500000D03*
X102575000Y-185475000D03*
X102575000Y-187450000D03*
X104550000Y-183500000D03*
X104550000Y-185475000D03*
X104550000Y-187450000D03*
X106525000Y-183500000D03*
X106525000Y-185475000D03*
D43*
X106525000Y-187450000D03*
D44*
X109350000Y-190375000D03*
X108550000Y-190375000D03*
X107750000Y-190375000D03*
X106950000Y-190375000D03*
X106150000Y-190375000D03*
X105350000Y-190375000D03*
X104550000Y-190375000D03*
X103750000Y-190375000D03*
X102950000Y-190375000D03*
X102150000Y-190375000D03*
X101350000Y-190375000D03*
X100550000Y-190375000D03*
X99750000Y-190375000D03*
D45*
X98650000Y-189475000D03*
X98650000Y-188675000D03*
X98650000Y-187875000D03*
X98650000Y-187075000D03*
X98650000Y-186275000D03*
X98650000Y-185475000D03*
X98650000Y-184675000D03*
X98650000Y-183875000D03*
X98650000Y-183075000D03*
X98650000Y-182275000D03*
X98650000Y-181475000D03*
D44*
X99750000Y-180575000D03*
X100550000Y-180575000D03*
X101350000Y-180575000D03*
X102150000Y-180575000D03*
X102950000Y-180575000D03*
X103750000Y-180575000D03*
X104550000Y-180575000D03*
X105350000Y-180575000D03*
X106150000Y-180575000D03*
X106950000Y-180575000D03*
X107750000Y-180575000D03*
X108550000Y-180575000D03*
X109350000Y-180575000D03*
D45*
X110450000Y-181475000D03*
X110450000Y-182275000D03*
X110450000Y-183075000D03*
X110450000Y-183875000D03*
X110450000Y-184675000D03*
X110450000Y-185475000D03*
X110450000Y-186275000D03*
X110450000Y-187075000D03*
X110450000Y-187875000D03*
X110450000Y-188675000D03*
X110450000Y-189475000D03*
%TD*%
D37*
%TO.C,C6*%
X93775000Y-175945000D03*
X93775000Y-176905000D03*
%TD*%
D46*
%TO.C,U3*%
X112750000Y-168337500D03*
X111800000Y-168337500D03*
X110850000Y-168337500D03*
X110850000Y-170612500D03*
X111800000Y-170612500D03*
X112750000Y-170612500D03*
%TD*%
D47*
%TO.C,C10*%
X81520000Y-181375000D03*
X82480000Y-181375000D03*
%TD*%
D48*
%TO.C,R6*%
X109262500Y-156275000D03*
X106337500Y-156275000D03*
%TD*%
D27*
%TO.C,R5*%
X97600000Y-157585000D03*
X97600000Y-156565000D03*
%TD*%
D49*
%TO.C,L1*%
X111800000Y-172625000D03*
X111800000Y-174725000D03*
%TD*%
D28*
%TO.C,R7*%
X107209999Y-160475000D03*
X106190001Y-160475000D03*
%TD*%
D50*
%TO.C,U4*%
X94850000Y-176475000D03*
X95350000Y-176475000D03*
X95850000Y-176475000D03*
X96350000Y-176475000D03*
X96350000Y-173675000D03*
X95850000Y-173675000D03*
X95350000Y-173675000D03*
X94850000Y-173675000D03*
%TD*%
D25*
%TO.C,R14*%
X97475000Y-176935000D03*
X97475000Y-175915000D03*
%TD*%
D20*
%TO.C,R16*%
X81490000Y-182375000D03*
X82510000Y-182375000D03*
%TD*%
D27*
%TO.C,R10*%
X97475000Y-173215000D03*
X97475000Y-174235000D03*
%TD*%
D51*
%TO.C,SW2*%
X94950000Y-195575000D03*
X94950000Y-191475000D03*
X96550000Y-195575000D03*
X96550000Y-191475000D03*
%TD*%
%TO.C,SW1*%
X112550000Y-195625000D03*
X112550000Y-191525000D03*
X114150000Y-195625000D03*
X114150000Y-191525000D03*
%TD*%
D52*
%TO.C,J4*%
X116510000Y-188725000D03*
D53*
X119050000Y-188725000D03*
X116510000Y-186185000D03*
X119050000Y-186185000D03*
X116510000Y-183645000D03*
X119050000Y-183645000D03*
X116510000Y-181105000D03*
X119050000Y-181105000D03*
X116510000Y-178565000D03*
X119050000Y-178565000D03*
X116510000Y-176025000D03*
X119050000Y-176025000D03*
X116510000Y-173485000D03*
X119050000Y-173485000D03*
X116510000Y-170945000D03*
X119050000Y-170945000D03*
X116510000Y-168405000D03*
X119050000Y-168405000D03*
X116510000Y-165865000D03*
X119050000Y-165865000D03*
%TD*%
D26*
%TO.C,C7*%
X106600000Y-174225000D03*
X106600000Y-172325000D03*
%TD*%
D27*
%TO.C,R12*%
X93775000Y-173215000D03*
X93775000Y-174235000D03*
%TD*%
%TO.C,R2*%
X94110000Y-162365000D03*
X94110000Y-163385000D03*
%TD*%
M02*
