%TF.GenerationSoftware,KiCad,Pcbnew,8.0.6*%
%TF.CreationDate,2024-11-24T23:38:19+01:00*%
%TF.ProjectId,ecad,65636164-2e6b-4696-9361-645f70636258,rev?*%
%TF.SameCoordinates,Original*%
%TF.FileFunction,Copper,L2,Inr*%
%TF.FilePolarity,Positive*%
%FSLAX46Y46*%
G04 Gerber Fmt 4.6, Leading zero omitted, Abs format (unit mm)*
G04 Created by KiCad (PCBNEW 8.0.6) date 2024-11-24 23:38:19*
%MOMM*%
%LPD*%
G01*
G04 APERTURE LIST*
%TA.AperFunction,ComponentPad*%
%ADD10R,3.000000X3.000000*%
%TD*%
%TA.AperFunction,ComponentPad*%
%ADD11C,3.000000*%
%TD*%
%TA.AperFunction,ComponentPad*%
%ADD12C,2.600000*%
%TD*%
%TA.AperFunction,ComponentPad*%
%ADD13O,1.300000X2.300000*%
%TD*%
%TA.AperFunction,ComponentPad*%
%ADD14O,1.300000X2.600000*%
%TD*%
%TA.AperFunction,ComponentPad*%
%ADD15R,1.700000X1.700000*%
%TD*%
%TA.AperFunction,ComponentPad*%
%ADD16O,1.700000X1.700000*%
%TD*%
%TA.AperFunction,ViaPad*%
%ADD17C,0.700000*%
%TD*%
%TA.AperFunction,ViaPad*%
%ADD18C,0.600000*%
%TD*%
G04 APERTURE END LIST*
D10*
%TO.N,VCC*%
%TO.C,J3*%
X116900000Y-161015000D03*
D11*
%TO.N,GND*%
X116900000Y-155935000D03*
%TD*%
D12*
%TO.N,N/C*%
%TO.C,H2*%
X91300000Y-193175000D03*
%TD*%
%TO.N,N/C*%
%TO.C,H4*%
X91300000Y-150175000D03*
%TD*%
%TO.N,N/C*%
%TO.C,H3*%
X117800000Y-150175000D03*
%TD*%
%TO.N,N/C*%
%TO.C,H1*%
X117800000Y-193175000D03*
%TD*%
D13*
%TO.N,GND*%
%TO.C,J1*%
X108870000Y-152485000D03*
D14*
X108870000Y-148660000D03*
D13*
X100230000Y-152485000D03*
D14*
X100230000Y-148660000D03*
%TD*%
D15*
%TO.N,unconnected-(J4-Pin_1-Pad1)*%
%TO.C,J4*%
X116510000Y-188725000D03*
D16*
%TO.N,unconnected-(J4-Pin_2-Pad2)*%
X119050000Y-188725000D03*
%TO.N,unconnected-(J4-Pin_3-Pad3)*%
X116510000Y-186185000D03*
%TO.N,unconnected-(J4-Pin_4-Pad4)*%
X119050000Y-186185000D03*
%TO.N,unconnected-(J4-Pin_5-Pad5)*%
X116510000Y-183645000D03*
%TO.N,unconnected-(J4-Pin_6-Pad6)*%
X119050000Y-183645000D03*
%TO.N,unconnected-(J4-Pin_7-Pad7)*%
X116510000Y-181105000D03*
%TO.N,unconnected-(J4-Pin_8-Pad8)*%
X119050000Y-181105000D03*
%TO.N,unconnected-(J4-Pin_9-Pad9)*%
X116510000Y-178565000D03*
%TO.N,unconnected-(J4-Pin_10-Pad10)*%
X119050000Y-178565000D03*
%TO.N,unconnected-(J4-Pin_11-Pad11)*%
X116510000Y-176025000D03*
%TO.N,unconnected-(J4-Pin_12-Pad12)*%
X119050000Y-176025000D03*
%TO.N,unconnected-(J4-Pin_13-Pad13)*%
X116510000Y-173485000D03*
%TO.N,unconnected-(J4-Pin_14-Pad14)*%
X119050000Y-173485000D03*
%TO.N,unconnected-(J4-Pin_15-Pad15)*%
X116510000Y-170945000D03*
%TO.N,unconnected-(J4-Pin_16-Pad16)*%
X119050000Y-170945000D03*
%TO.N,unconnected-(J4-Pin_17-Pad17)*%
X116510000Y-168405000D03*
%TO.N,unconnected-(J4-Pin_18-Pad18)*%
X119050000Y-168405000D03*
%TO.N,unconnected-(J4-Pin_19-Pad19)*%
X116510000Y-165865000D03*
%TO.N,unconnected-(J4-Pin_20-Pad20)*%
X119050000Y-165865000D03*
%TD*%
D17*
%TO.N,GND*%
X94950000Y-193575000D03*
X112550000Y-193575000D03*
D18*
X97800000Y-159975000D03*
D17*
X107800000Y-171375000D03*
X97600000Y-158325000D03*
X106200000Y-165025000D03*
X100350000Y-155125000D03*
X107000000Y-170275000D03*
X108600000Y-171375000D03*
X107800000Y-170275000D03*
X101150000Y-157425000D03*
X95349999Y-152878907D03*
X113200000Y-148775000D03*
X100350000Y-157425000D03*
X95800000Y-158325000D03*
X98165000Y-162625000D03*
X106200000Y-170275000D03*
X101150000Y-155125000D03*
X107000000Y-171375000D03*
X114200000Y-176625000D03*
X106200000Y-171375000D03*
X101000000Y-164575000D03*
X103400000Y-154675000D03*
%TO.N,+3V3*%
X107825000Y-175250000D03*
X107025000Y-175250000D03*
X108625000Y-175250000D03*
X106225000Y-175250000D03*
X109425000Y-175250000D03*
%TO.N,Net-(J1-CC2)*%
X96909620Y-152034620D03*
X102800000Y-151675000D03*
%TO.N,Net-(J1-CC1)*%
X96000000Y-152025000D03*
X105800000Y-151690000D03*
%TO.N,Net-(U2-OTP)*%
X105700000Y-154675000D03*
X101050000Y-163325000D03*
D18*
%TO.N,Net-(U2-SDA)*%
X102899994Y-158578458D03*
%TO.N,Net-(U2-SCL)*%
X102100000Y-158575000D03*
%TD*%
%TA.AperFunction,Conductor*%
%TO.N,GND*%
G36*
X117801602Y-146800583D02*
G01*
X118149519Y-146818817D01*
X118155909Y-146819489D01*
X118498435Y-146873740D01*
X118504703Y-146875073D01*
X118839669Y-146964827D01*
X118845774Y-146966810D01*
X119092593Y-147061555D01*
X119169524Y-147091086D01*
X119175404Y-147093704D01*
X119484389Y-147251139D01*
X119489945Y-147254347D01*
X119497817Y-147259459D01*
X119780778Y-147443217D01*
X119785979Y-147446995D01*
X120055484Y-147665236D01*
X120060257Y-147669534D01*
X120305465Y-147914742D01*
X120309764Y-147919516D01*
X120527999Y-148189013D01*
X120531782Y-148194221D01*
X120720646Y-148485044D01*
X120723865Y-148490619D01*
X120881295Y-148799595D01*
X120883913Y-148805475D01*
X121008186Y-149129216D01*
X121010175Y-149135339D01*
X121099923Y-149470282D01*
X121101262Y-149476578D01*
X121149243Y-149779518D01*
X121150000Y-149789139D01*
X121150000Y-193560859D01*
X121149243Y-193570480D01*
X121101262Y-193873421D01*
X121099923Y-193879717D01*
X121010175Y-194214660D01*
X121008186Y-194220783D01*
X120883913Y-194544524D01*
X120881295Y-194550404D01*
X120723865Y-194859380D01*
X120720646Y-194864955D01*
X120531782Y-195155778D01*
X120527999Y-195160986D01*
X120309773Y-195430473D01*
X120305465Y-195435257D01*
X120060257Y-195680465D01*
X120055473Y-195684773D01*
X119785986Y-195902999D01*
X119780778Y-195906782D01*
X119489955Y-196095646D01*
X119484380Y-196098865D01*
X119175404Y-196256295D01*
X119169524Y-196258913D01*
X118845783Y-196383186D01*
X118839660Y-196385175D01*
X118504717Y-196474923D01*
X118498421Y-196476262D01*
X118155915Y-196530509D01*
X118149513Y-196531182D01*
X117801603Y-196549416D01*
X117798384Y-196549500D01*
X111211500Y-196549500D01*
X111168013Y-196531487D01*
X111150000Y-196488000D01*
X111150000Y-193175000D01*
X116294357Y-193175000D01*
X116314892Y-193422824D01*
X116314892Y-193422826D01*
X116375935Y-193663875D01*
X116375938Y-193663885D01*
X116455462Y-193845181D01*
X116469243Y-193876598D01*
X116475825Y-193891602D01*
X116475829Y-193891611D01*
X116611831Y-194099778D01*
X116611836Y-194099785D01*
X116780256Y-194282738D01*
X116780258Y-194282739D01*
X116780258Y-194282740D01*
X116878373Y-194359106D01*
X116976491Y-194435474D01*
X117195190Y-194553828D01*
X117430386Y-194634571D01*
X117430389Y-194634571D01*
X117430390Y-194634572D01*
X117553025Y-194655035D01*
X117675665Y-194675500D01*
X117924335Y-194675500D01*
X118108513Y-194644766D01*
X118169609Y-194634572D01*
X118169609Y-194634571D01*
X118169614Y-194634571D01*
X118404810Y-194553828D01*
X118623509Y-194435474D01*
X118819744Y-194282738D01*
X118988164Y-194099785D01*
X119124173Y-193891607D01*
X119224063Y-193663881D01*
X119285108Y-193422821D01*
X119305643Y-193175000D01*
X119285108Y-192927179D01*
X119285107Y-192927175D01*
X119285107Y-192927173D01*
X119224064Y-192686124D01*
X119224063Y-192686119D01*
X119124173Y-192458393D01*
X118988164Y-192250215D01*
X118819744Y-192067262D01*
X118819741Y-192067259D01*
X118623510Y-191914527D01*
X118623509Y-191914526D01*
X118404810Y-191796172D01*
X118169614Y-191715429D01*
X118169613Y-191715428D01*
X118169611Y-191715428D01*
X118169609Y-191715427D01*
X117924338Y-191674500D01*
X117924335Y-191674500D01*
X117675665Y-191674500D01*
X117675661Y-191674500D01*
X117430390Y-191715427D01*
X117430388Y-191715428D01*
X117195192Y-191796171D01*
X116976489Y-191914527D01*
X116780258Y-192067259D01*
X116780258Y-192067260D01*
X116611835Y-192250215D01*
X116611831Y-192250221D01*
X116475829Y-192458388D01*
X116475825Y-192458397D01*
X116375938Y-192686114D01*
X116375935Y-192686124D01*
X116314892Y-192927173D01*
X116314892Y-192927175D01*
X116294357Y-193175000D01*
X111150000Y-193175000D01*
X111150000Y-191075000D01*
X97950000Y-191075000D01*
X97950000Y-196488000D01*
X97931987Y-196531487D01*
X97888500Y-196549500D01*
X91301616Y-196549500D01*
X91298397Y-196549416D01*
X90950486Y-196531182D01*
X90944084Y-196530509D01*
X90601578Y-196476262D01*
X90595282Y-196474923D01*
X90260339Y-196385175D01*
X90254216Y-196383186D01*
X89930475Y-196258913D01*
X89924595Y-196256295D01*
X89615619Y-196098865D01*
X89610044Y-196095646D01*
X89319221Y-195906782D01*
X89314013Y-195902999D01*
X89044516Y-195684764D01*
X89039742Y-195680465D01*
X88794534Y-195435257D01*
X88790236Y-195430484D01*
X88571995Y-195160979D01*
X88568217Y-195155778D01*
X88493761Y-195041127D01*
X88379347Y-194864945D01*
X88376139Y-194859389D01*
X88248522Y-194608926D01*
X88218704Y-194550404D01*
X88216086Y-194544524D01*
X88205794Y-194517713D01*
X88091810Y-194220774D01*
X88089827Y-194214669D01*
X88000073Y-193879703D01*
X87998740Y-193873435D01*
X87944489Y-193530909D01*
X87943817Y-193524513D01*
X87925584Y-193176602D01*
X87925542Y-193175000D01*
X89794357Y-193175000D01*
X89814892Y-193422824D01*
X89814892Y-193422826D01*
X89875935Y-193663875D01*
X89875938Y-193663885D01*
X89955462Y-193845181D01*
X89969243Y-193876598D01*
X89975825Y-193891602D01*
X89975829Y-193891611D01*
X90111831Y-194099778D01*
X90111836Y-194099785D01*
X90280256Y-194282738D01*
X90280258Y-194282739D01*
X90280258Y-194282740D01*
X90378373Y-194359106D01*
X90476491Y-194435474D01*
X90695190Y-194553828D01*
X90930386Y-194634571D01*
X90930389Y-194634571D01*
X90930390Y-194634572D01*
X91053025Y-194655035D01*
X91175665Y-194675500D01*
X91424335Y-194675500D01*
X91608513Y-194644766D01*
X91669609Y-194634572D01*
X91669609Y-194634571D01*
X91669614Y-194634571D01*
X91904810Y-194553828D01*
X92123509Y-194435474D01*
X92319744Y-194282738D01*
X92488164Y-194099785D01*
X92624173Y-193891607D01*
X92724063Y-193663881D01*
X92785108Y-193422821D01*
X92805643Y-193175000D01*
X92785108Y-192927179D01*
X92785107Y-192927175D01*
X92785107Y-192927173D01*
X92724064Y-192686124D01*
X92724063Y-192686119D01*
X92624173Y-192458393D01*
X92488164Y-192250215D01*
X92319744Y-192067262D01*
X92319741Y-192067259D01*
X92123510Y-191914527D01*
X92123509Y-191914526D01*
X91904810Y-191796172D01*
X91669614Y-191715429D01*
X91669613Y-191715428D01*
X91669611Y-191715428D01*
X91669609Y-191715427D01*
X91424338Y-191674500D01*
X91424335Y-191674500D01*
X91175665Y-191674500D01*
X91175661Y-191674500D01*
X90930390Y-191715427D01*
X90930388Y-191715428D01*
X90695192Y-191796171D01*
X90476489Y-191914527D01*
X90280258Y-192067259D01*
X90280258Y-192067260D01*
X90111835Y-192250215D01*
X90111831Y-192250221D01*
X89975829Y-192458388D01*
X89975825Y-192458397D01*
X89875938Y-192686114D01*
X89875935Y-192686124D01*
X89814892Y-192927173D01*
X89814892Y-192927175D01*
X89794357Y-193175000D01*
X87925542Y-193175000D01*
X87925500Y-193173383D01*
X87925500Y-187855248D01*
X115459500Y-187855248D01*
X115459500Y-189594751D01*
X115471131Y-189653224D01*
X115471132Y-189653228D01*
X115471133Y-189653231D01*
X115515448Y-189719552D01*
X115581769Y-189763867D01*
X115640248Y-189775499D01*
X115640249Y-189775500D01*
X115640252Y-189775500D01*
X117379751Y-189775500D01*
X117379751Y-189775499D01*
X117438231Y-189763867D01*
X117504552Y-189719552D01*
X117548867Y-189653231D01*
X117560499Y-189594751D01*
X117560500Y-189594751D01*
X117560500Y-188725000D01*
X117994417Y-188725000D01*
X118014699Y-188930933D01*
X118074766Y-189128950D01*
X118172314Y-189311450D01*
X118172315Y-189311451D01*
X118303588Y-189471409D01*
X118303590Y-189471411D01*
X118463548Y-189602684D01*
X118463549Y-189602685D01*
X118549264Y-189648500D01*
X118646046Y-189700232D01*
X118844066Y-189760300D01*
X119050000Y-189780583D01*
X119255934Y-189760300D01*
X119453954Y-189700232D01*
X119636450Y-189602685D01*
X119796410Y-189471410D01*
X119927685Y-189311450D01*
X120025232Y-189128954D01*
X120085300Y-188930934D01*
X120105583Y-188725000D01*
X120085300Y-188519066D01*
X120025232Y-188321046D01*
X119973500Y-188224264D01*
X119927685Y-188138549D01*
X119927684Y-188138548D01*
X119796411Y-187978590D01*
X119796409Y-187978588D01*
X119636451Y-187847315D01*
X119636450Y-187847314D01*
X119453950Y-187749766D01*
X119255933Y-187689699D01*
X119050000Y-187669417D01*
X118844066Y-187689699D01*
X118646049Y-187749766D01*
X118463549Y-187847314D01*
X118463548Y-187847315D01*
X118303590Y-187978588D01*
X118303588Y-187978590D01*
X118172315Y-188138548D01*
X118172314Y-188138549D01*
X118074766Y-188321049D01*
X118014699Y-188519066D01*
X117994417Y-188725000D01*
X117560500Y-188725000D01*
X117560500Y-187855249D01*
X117560499Y-187855248D01*
X117548868Y-187796775D01*
X117548867Y-187796769D01*
X117504552Y-187730448D01*
X117438231Y-187686133D01*
X117438228Y-187686132D01*
X117438224Y-187686131D01*
X117379751Y-187674500D01*
X117379748Y-187674500D01*
X115640252Y-187674500D01*
X115640249Y-187674500D01*
X115581775Y-187686131D01*
X115581769Y-187686133D01*
X115515448Y-187730448D01*
X115471133Y-187796769D01*
X115471131Y-187796775D01*
X115459500Y-187855248D01*
X87925500Y-187855248D01*
X87925500Y-186185000D01*
X115454417Y-186185000D01*
X115474699Y-186390933D01*
X115534766Y-186588950D01*
X115632314Y-186771450D01*
X115632315Y-186771451D01*
X115763588Y-186931409D01*
X115763590Y-186931411D01*
X115923548Y-187062684D01*
X115923549Y-187062685D01*
X116009264Y-187108500D01*
X116106046Y-187160232D01*
X116304066Y-187220300D01*
X116510000Y-187240583D01*
X116715934Y-187220300D01*
X116913954Y-187160232D01*
X117096450Y-187062685D01*
X117256410Y-186931410D01*
X117387685Y-186771450D01*
X117485232Y-186588954D01*
X117545300Y-186390934D01*
X117565583Y-186185000D01*
X117994417Y-186185000D01*
X118014699Y-186390933D01*
X118074766Y-186588950D01*
X118172314Y-186771450D01*
X118172315Y-186771451D01*
X118303588Y-186931409D01*
X118303590Y-186931411D01*
X118463548Y-187062684D01*
X118463549Y-187062685D01*
X118549264Y-187108500D01*
X118646046Y-187160232D01*
X118844066Y-187220300D01*
X119050000Y-187240583D01*
X119255934Y-187220300D01*
X119453954Y-187160232D01*
X119636450Y-187062685D01*
X119796410Y-186931410D01*
X119927685Y-186771450D01*
X120025232Y-186588954D01*
X120085300Y-186390934D01*
X120105583Y-186185000D01*
X120085300Y-185979066D01*
X120025232Y-185781046D01*
X119973500Y-185684264D01*
X119927685Y-185598549D01*
X119927684Y-185598548D01*
X119796411Y-185438590D01*
X119796409Y-185438588D01*
X119636451Y-185307315D01*
X119636450Y-185307314D01*
X119453950Y-185209766D01*
X119255933Y-185149699D01*
X119050000Y-185129417D01*
X118844066Y-185149699D01*
X118646049Y-185209766D01*
X118463549Y-185307314D01*
X118463548Y-185307315D01*
X118303590Y-185438588D01*
X118303588Y-185438590D01*
X118172315Y-185598548D01*
X118172314Y-185598549D01*
X118074766Y-185781049D01*
X118014699Y-185979066D01*
X117994417Y-186185000D01*
X117565583Y-186185000D01*
X117545300Y-185979066D01*
X117485232Y-185781046D01*
X117433500Y-185684264D01*
X117387685Y-185598549D01*
X117387684Y-185598548D01*
X117256411Y-185438590D01*
X117256409Y-185438588D01*
X117096451Y-185307315D01*
X117096450Y-185307314D01*
X116913950Y-185209766D01*
X116715933Y-185149699D01*
X116510000Y-185129417D01*
X116304066Y-185149699D01*
X116106049Y-185209766D01*
X115923549Y-185307314D01*
X115923548Y-185307315D01*
X115763590Y-185438588D01*
X115763588Y-185438590D01*
X115632315Y-185598548D01*
X115632314Y-185598549D01*
X115534766Y-185781049D01*
X115474699Y-185979066D01*
X115454417Y-186185000D01*
X87925500Y-186185000D01*
X87925500Y-183645000D01*
X115454417Y-183645000D01*
X115474699Y-183850933D01*
X115534766Y-184048950D01*
X115632314Y-184231450D01*
X115632315Y-184231451D01*
X115763588Y-184391409D01*
X115763590Y-184391411D01*
X115923548Y-184522684D01*
X115923549Y-184522685D01*
X116009264Y-184568500D01*
X116106046Y-184620232D01*
X116304066Y-184680300D01*
X116510000Y-184700583D01*
X116715934Y-184680300D01*
X116913954Y-184620232D01*
X117096450Y-184522685D01*
X117256410Y-184391410D01*
X117387685Y-184231450D01*
X117485232Y-184048954D01*
X117545300Y-183850934D01*
X117565583Y-183645000D01*
X117994417Y-183645000D01*
X118014699Y-183850933D01*
X118074766Y-184048950D01*
X118172314Y-184231450D01*
X118172315Y-184231451D01*
X118303588Y-184391409D01*
X118303590Y-184391411D01*
X118463548Y-184522684D01*
X118463549Y-184522685D01*
X118549264Y-184568500D01*
X118646046Y-184620232D01*
X118844066Y-184680300D01*
X119050000Y-184700583D01*
X119255934Y-184680300D01*
X119453954Y-184620232D01*
X119636450Y-184522685D01*
X119796410Y-184391410D01*
X119927685Y-184231450D01*
X120025232Y-184048954D01*
X120085300Y-183850934D01*
X120105583Y-183645000D01*
X120085300Y-183439066D01*
X120025232Y-183241046D01*
X119973500Y-183144264D01*
X119927685Y-183058549D01*
X119927684Y-183058548D01*
X119796411Y-182898590D01*
X119796409Y-182898588D01*
X119636451Y-182767315D01*
X119636450Y-182767314D01*
X119453950Y-182669766D01*
X119255933Y-182609699D01*
X119050000Y-182589417D01*
X118844066Y-182609699D01*
X118646049Y-182669766D01*
X118463549Y-182767314D01*
X118463548Y-182767315D01*
X118303590Y-182898588D01*
X118303588Y-182898590D01*
X118172315Y-183058548D01*
X118172314Y-183058549D01*
X118074766Y-183241049D01*
X118014699Y-183439066D01*
X117994417Y-183645000D01*
X117565583Y-183645000D01*
X117545300Y-183439066D01*
X117485232Y-183241046D01*
X117433500Y-183144264D01*
X117387685Y-183058549D01*
X117387684Y-183058548D01*
X117256411Y-182898590D01*
X117256409Y-182898588D01*
X117096451Y-182767315D01*
X117096450Y-182767314D01*
X116913950Y-182669766D01*
X116715933Y-182609699D01*
X116510000Y-182589417D01*
X116304066Y-182609699D01*
X116106049Y-182669766D01*
X115923549Y-182767314D01*
X115923548Y-182767315D01*
X115763590Y-182898588D01*
X115763588Y-182898590D01*
X115632315Y-183058548D01*
X115632314Y-183058549D01*
X115534766Y-183241049D01*
X115474699Y-183439066D01*
X115454417Y-183645000D01*
X87925500Y-183645000D01*
X87925500Y-181105000D01*
X115454417Y-181105000D01*
X115474699Y-181310933D01*
X115534766Y-181508950D01*
X115632314Y-181691450D01*
X115632315Y-181691451D01*
X115763588Y-181851409D01*
X115763590Y-181851411D01*
X115923548Y-181982684D01*
X115923549Y-181982685D01*
X116009264Y-182028500D01*
X116106046Y-182080232D01*
X116304066Y-182140300D01*
X116510000Y-182160583D01*
X116715934Y-182140300D01*
X116913954Y-182080232D01*
X117096450Y-181982685D01*
X117256410Y-181851410D01*
X117387685Y-181691450D01*
X117485232Y-181508954D01*
X117545300Y-181310934D01*
X117565583Y-181105000D01*
X117994417Y-181105000D01*
X118014699Y-181310933D01*
X118074766Y-181508950D01*
X118172314Y-181691450D01*
X118172315Y-181691451D01*
X118303588Y-181851409D01*
X118303590Y-181851411D01*
X118463548Y-181982684D01*
X118463549Y-181982685D01*
X118549264Y-182028500D01*
X118646046Y-182080232D01*
X118844066Y-182140300D01*
X119050000Y-182160583D01*
X119255934Y-182140300D01*
X119453954Y-182080232D01*
X119636450Y-181982685D01*
X119796410Y-181851410D01*
X119927685Y-181691450D01*
X120025232Y-181508954D01*
X120085300Y-181310934D01*
X120105583Y-181105000D01*
X120085300Y-180899066D01*
X120025232Y-180701046D01*
X119973500Y-180604264D01*
X119927685Y-180518549D01*
X119927684Y-180518548D01*
X119796411Y-180358590D01*
X119796409Y-180358588D01*
X119636451Y-180227315D01*
X119636450Y-180227314D01*
X119453950Y-180129766D01*
X119255933Y-180069699D01*
X119050000Y-180049417D01*
X118844066Y-180069699D01*
X118646049Y-180129766D01*
X118463549Y-180227314D01*
X118463548Y-180227315D01*
X118303590Y-180358588D01*
X118303588Y-180358590D01*
X118172315Y-180518548D01*
X118172314Y-180518549D01*
X118074766Y-180701049D01*
X118014699Y-180899066D01*
X117994417Y-181105000D01*
X117565583Y-181105000D01*
X117545300Y-180899066D01*
X117485232Y-180701046D01*
X117433500Y-180604264D01*
X117387685Y-180518549D01*
X117387684Y-180518548D01*
X117256411Y-180358590D01*
X117256409Y-180358588D01*
X117096451Y-180227315D01*
X117096450Y-180227314D01*
X116913950Y-180129766D01*
X116715933Y-180069699D01*
X116510000Y-180049417D01*
X116304066Y-180069699D01*
X116106049Y-180129766D01*
X115923549Y-180227314D01*
X115923548Y-180227315D01*
X115763590Y-180358588D01*
X115763588Y-180358590D01*
X115632315Y-180518548D01*
X115632314Y-180518549D01*
X115534766Y-180701049D01*
X115474699Y-180899066D01*
X115454417Y-181105000D01*
X87925500Y-181105000D01*
X87925500Y-178565000D01*
X115454417Y-178565000D01*
X115474699Y-178770933D01*
X115534766Y-178968950D01*
X115632314Y-179151450D01*
X115632315Y-179151451D01*
X115763588Y-179311409D01*
X115763590Y-179311411D01*
X115923548Y-179442684D01*
X115923549Y-179442685D01*
X116009264Y-179488500D01*
X116106046Y-179540232D01*
X116304066Y-179600300D01*
X116510000Y-179620583D01*
X116715934Y-179600300D01*
X116913954Y-179540232D01*
X117096450Y-179442685D01*
X117256410Y-179311410D01*
X117387685Y-179151450D01*
X117485232Y-178968954D01*
X117545300Y-178770934D01*
X117565583Y-178565000D01*
X117994417Y-178565000D01*
X118014699Y-178770933D01*
X118074766Y-178968950D01*
X118172314Y-179151450D01*
X118172315Y-179151451D01*
X118303588Y-179311409D01*
X118303590Y-179311411D01*
X118463548Y-179442684D01*
X118463549Y-179442685D01*
X118549264Y-179488500D01*
X118646046Y-179540232D01*
X118844066Y-179600300D01*
X119050000Y-179620583D01*
X119255934Y-179600300D01*
X119453954Y-179540232D01*
X119636450Y-179442685D01*
X119796410Y-179311410D01*
X119927685Y-179151450D01*
X120025232Y-178968954D01*
X120085300Y-178770934D01*
X120105583Y-178565000D01*
X120085300Y-178359066D01*
X120025232Y-178161046D01*
X119973500Y-178064264D01*
X119927685Y-177978549D01*
X119927684Y-177978548D01*
X119796411Y-177818590D01*
X119796409Y-177818588D01*
X119636451Y-177687315D01*
X119636450Y-177687314D01*
X119453950Y-177589766D01*
X119255933Y-177529699D01*
X119050000Y-177509417D01*
X118844066Y-177529699D01*
X118646049Y-177589766D01*
X118463549Y-177687314D01*
X118463548Y-177687315D01*
X118303590Y-177818588D01*
X118303588Y-177818590D01*
X118172315Y-177978548D01*
X118172314Y-177978549D01*
X118074766Y-178161049D01*
X118014699Y-178359066D01*
X117994417Y-178565000D01*
X117565583Y-178565000D01*
X117545300Y-178359066D01*
X117485232Y-178161046D01*
X117433500Y-178064264D01*
X117387685Y-177978549D01*
X117387684Y-177978548D01*
X117256411Y-177818590D01*
X117256409Y-177818588D01*
X117096451Y-177687315D01*
X117096450Y-177687314D01*
X116913950Y-177589766D01*
X116715933Y-177529699D01*
X116510000Y-177509417D01*
X116304066Y-177529699D01*
X116106049Y-177589766D01*
X115923549Y-177687314D01*
X115923548Y-177687315D01*
X115763590Y-177818588D01*
X115763588Y-177818590D01*
X115632315Y-177978548D01*
X115632314Y-177978549D01*
X115534766Y-178161049D01*
X115474699Y-178359066D01*
X115454417Y-178565000D01*
X87925500Y-178565000D01*
X87925500Y-176025000D01*
X115454417Y-176025000D01*
X115474699Y-176230933D01*
X115534766Y-176428950D01*
X115632314Y-176611450D01*
X115632315Y-176611451D01*
X115763588Y-176771409D01*
X115763590Y-176771411D01*
X115923548Y-176902684D01*
X115923549Y-176902685D01*
X116009264Y-176948500D01*
X116106046Y-177000232D01*
X116304066Y-177060300D01*
X116510000Y-177080583D01*
X116715934Y-177060300D01*
X116913954Y-177000232D01*
X117096450Y-176902685D01*
X117256410Y-176771410D01*
X117387685Y-176611450D01*
X117485232Y-176428954D01*
X117545300Y-176230934D01*
X117565583Y-176025000D01*
X117994417Y-176025000D01*
X118014699Y-176230933D01*
X118074766Y-176428950D01*
X118172314Y-176611450D01*
X118172315Y-176611451D01*
X118303588Y-176771409D01*
X118303590Y-176771411D01*
X118463548Y-176902684D01*
X118463549Y-176902685D01*
X118549264Y-176948500D01*
X118646046Y-177000232D01*
X118844066Y-177060300D01*
X119050000Y-177080583D01*
X119255934Y-177060300D01*
X119453954Y-177000232D01*
X119636450Y-176902685D01*
X119796410Y-176771410D01*
X119927685Y-176611450D01*
X120025232Y-176428954D01*
X120085300Y-176230934D01*
X120105583Y-176025000D01*
X120085300Y-175819066D01*
X120025232Y-175621046D01*
X119973500Y-175524264D01*
X119927685Y-175438549D01*
X119927684Y-175438548D01*
X119796411Y-175278590D01*
X119796409Y-175278588D01*
X119636451Y-175147315D01*
X119636450Y-175147314D01*
X119453950Y-175049766D01*
X119255933Y-174989699D01*
X119050000Y-174969417D01*
X118844066Y-174989699D01*
X118646049Y-175049766D01*
X118463549Y-175147314D01*
X118463548Y-175147315D01*
X118303590Y-175278588D01*
X118303588Y-175278590D01*
X118172315Y-175438548D01*
X118172314Y-175438549D01*
X118074766Y-175621049D01*
X118014699Y-175819066D01*
X117994417Y-176025000D01*
X117565583Y-176025000D01*
X117545300Y-175819066D01*
X117485232Y-175621046D01*
X117433500Y-175524264D01*
X117387685Y-175438549D01*
X117387684Y-175438548D01*
X117256411Y-175278590D01*
X117256409Y-175278588D01*
X117096451Y-175147315D01*
X117096450Y-175147314D01*
X116913950Y-175049766D01*
X116715933Y-174989699D01*
X116510000Y-174969417D01*
X116304066Y-174989699D01*
X116106049Y-175049766D01*
X115923549Y-175147314D01*
X115923548Y-175147315D01*
X115763590Y-175278588D01*
X115763588Y-175278590D01*
X115632315Y-175438548D01*
X115632314Y-175438549D01*
X115534766Y-175621049D01*
X115474699Y-175819066D01*
X115454417Y-176025000D01*
X87925500Y-176025000D01*
X87925500Y-175250000D01*
X105669750Y-175250000D01*
X105688670Y-175393709D01*
X105744139Y-175527625D01*
X105832379Y-175642621D01*
X105947375Y-175730861D01*
X106081291Y-175786330D01*
X106225000Y-175805250D01*
X106368709Y-175786330D01*
X106502625Y-175730861D01*
X106587562Y-175665685D01*
X106633027Y-175653503D01*
X106662436Y-175665684D01*
X106747375Y-175730861D01*
X106881291Y-175786330D01*
X107025000Y-175805250D01*
X107168709Y-175786330D01*
X107302625Y-175730861D01*
X107387562Y-175665685D01*
X107433027Y-175653503D01*
X107462436Y-175665684D01*
X107547375Y-175730861D01*
X107681291Y-175786330D01*
X107825000Y-175805250D01*
X107968709Y-175786330D01*
X108102625Y-175730861D01*
X108187562Y-175665685D01*
X108233027Y-175653503D01*
X108262436Y-175665684D01*
X108347375Y-175730861D01*
X108481291Y-175786330D01*
X108625000Y-175805250D01*
X108768709Y-175786330D01*
X108902625Y-175730861D01*
X108987562Y-175665685D01*
X109033027Y-175653503D01*
X109062436Y-175665684D01*
X109147375Y-175730861D01*
X109281291Y-175786330D01*
X109425000Y-175805250D01*
X109568709Y-175786330D01*
X109702625Y-175730861D01*
X109817621Y-175642621D01*
X109905861Y-175527625D01*
X109961330Y-175393709D01*
X109980250Y-175250000D01*
X109961330Y-175106291D01*
X109905861Y-174972375D01*
X109817621Y-174857379D01*
X109702625Y-174769139D01*
X109568709Y-174713670D01*
X109568706Y-174713669D01*
X109568704Y-174713669D01*
X109425000Y-174694750D01*
X109281295Y-174713669D01*
X109281291Y-174713670D01*
X109147375Y-174769139D01*
X109147371Y-174769141D01*
X109062439Y-174834312D01*
X109016972Y-174846495D01*
X108987561Y-174834312D01*
X108902628Y-174769141D01*
X108902626Y-174769140D01*
X108902625Y-174769139D01*
X108768709Y-174713670D01*
X108768706Y-174713669D01*
X108768704Y-174713669D01*
X108625000Y-174694750D01*
X108481295Y-174713669D01*
X108481291Y-174713670D01*
X108347375Y-174769139D01*
X108347371Y-174769141D01*
X108262439Y-174834312D01*
X108216972Y-174846495D01*
X108187561Y-174834312D01*
X108102628Y-174769141D01*
X108102626Y-174769140D01*
X108102625Y-174769139D01*
X107968709Y-174713670D01*
X107968706Y-174713669D01*
X107968704Y-174713669D01*
X107825000Y-174694750D01*
X107681295Y-174713669D01*
X107681291Y-174713670D01*
X107547375Y-174769139D01*
X107547371Y-174769141D01*
X107462439Y-174834312D01*
X107416972Y-174846495D01*
X107387561Y-174834312D01*
X107302628Y-174769141D01*
X107302626Y-174769140D01*
X107302625Y-174769139D01*
X107168709Y-174713670D01*
X107168706Y-174713669D01*
X107168704Y-174713669D01*
X107025000Y-174694750D01*
X106881295Y-174713669D01*
X106881291Y-174713670D01*
X106747375Y-174769139D01*
X106747371Y-174769141D01*
X106662439Y-174834312D01*
X106616972Y-174846495D01*
X106587561Y-174834312D01*
X106502628Y-174769141D01*
X106502626Y-174769140D01*
X106502625Y-174769139D01*
X106368709Y-174713670D01*
X106368706Y-174713669D01*
X106368704Y-174713669D01*
X106225000Y-174694750D01*
X106081295Y-174713669D01*
X106081291Y-174713670D01*
X105947375Y-174769139D01*
X105947371Y-174769141D01*
X105832379Y-174857379D01*
X105744141Y-174972371D01*
X105744139Y-174972375D01*
X105688670Y-175106291D01*
X105669750Y-175250000D01*
X87925500Y-175250000D01*
X87925500Y-173485000D01*
X115454417Y-173485000D01*
X115474699Y-173690933D01*
X115534766Y-173888950D01*
X115632314Y-174071450D01*
X115632315Y-174071451D01*
X115763588Y-174231409D01*
X115763590Y-174231411D01*
X115923548Y-174362684D01*
X115923549Y-174362685D01*
X116009264Y-174408500D01*
X116106046Y-174460232D01*
X116304066Y-174520300D01*
X116510000Y-174540583D01*
X116715934Y-174520300D01*
X116913954Y-174460232D01*
X117096450Y-174362685D01*
X117256410Y-174231410D01*
X117387685Y-174071450D01*
X117485232Y-173888954D01*
X117545300Y-173690934D01*
X117565583Y-173485000D01*
X117994417Y-173485000D01*
X118014699Y-173690933D01*
X118074766Y-173888950D01*
X118172314Y-174071450D01*
X118172315Y-174071451D01*
X118303588Y-174231409D01*
X118303590Y-174231411D01*
X118463548Y-174362684D01*
X118463549Y-174362685D01*
X118549264Y-174408500D01*
X118646046Y-174460232D01*
X118844066Y-174520300D01*
X119050000Y-174540583D01*
X119255934Y-174520300D01*
X119453954Y-174460232D01*
X119636450Y-174362685D01*
X119796410Y-174231410D01*
X119927685Y-174071450D01*
X120025232Y-173888954D01*
X120085300Y-173690934D01*
X120105583Y-173485000D01*
X120085300Y-173279066D01*
X120025232Y-173081046D01*
X119973500Y-172984264D01*
X119927685Y-172898549D01*
X119927684Y-172898548D01*
X119796411Y-172738590D01*
X119796409Y-172738588D01*
X119636451Y-172607315D01*
X119636450Y-172607314D01*
X119453950Y-172509766D01*
X119255933Y-172449699D01*
X119050000Y-172429417D01*
X118844066Y-172449699D01*
X118646049Y-172509766D01*
X118463549Y-172607314D01*
X118463548Y-172607315D01*
X118303590Y-172738588D01*
X118303588Y-172738590D01*
X118172315Y-172898548D01*
X118172314Y-172898549D01*
X118074766Y-173081049D01*
X118014699Y-173279066D01*
X117994417Y-173485000D01*
X117565583Y-173485000D01*
X117545300Y-173279066D01*
X117485232Y-173081046D01*
X117433500Y-172984264D01*
X117387685Y-172898549D01*
X117387684Y-172898548D01*
X117256411Y-172738590D01*
X117256409Y-172738588D01*
X117096451Y-172607315D01*
X117096450Y-172607314D01*
X116913950Y-172509766D01*
X116715933Y-172449699D01*
X116510000Y-172429417D01*
X116304066Y-172449699D01*
X116106049Y-172509766D01*
X115923549Y-172607314D01*
X115923548Y-172607315D01*
X115763590Y-172738588D01*
X115763588Y-172738590D01*
X115632315Y-172898548D01*
X115632314Y-172898549D01*
X115534766Y-173081049D01*
X115474699Y-173279066D01*
X115454417Y-173485000D01*
X87925500Y-173485000D01*
X87925500Y-170945000D01*
X115454417Y-170945000D01*
X115474699Y-171150933D01*
X115534766Y-171348950D01*
X115632314Y-171531450D01*
X115632315Y-171531451D01*
X115763588Y-171691409D01*
X115763590Y-171691411D01*
X115923548Y-171822684D01*
X115923549Y-171822685D01*
X116009264Y-171868500D01*
X116106046Y-171920232D01*
X116304066Y-171980300D01*
X116510000Y-172000583D01*
X116715934Y-171980300D01*
X116913954Y-171920232D01*
X117096450Y-171822685D01*
X117256410Y-171691410D01*
X117387685Y-171531450D01*
X117485232Y-171348954D01*
X117545300Y-171150934D01*
X117565583Y-170945000D01*
X117994417Y-170945000D01*
X118014699Y-171150933D01*
X118074766Y-171348950D01*
X118172314Y-171531450D01*
X118172315Y-171531451D01*
X118303588Y-171691409D01*
X118303590Y-171691411D01*
X118463548Y-171822684D01*
X118463549Y-171822685D01*
X118549264Y-171868500D01*
X118646046Y-171920232D01*
X118844066Y-171980300D01*
X119050000Y-172000583D01*
X119255934Y-171980300D01*
X119453954Y-171920232D01*
X119636450Y-171822685D01*
X119796410Y-171691410D01*
X119927685Y-171531450D01*
X120025232Y-171348954D01*
X120085300Y-171150934D01*
X120105583Y-170945000D01*
X120085300Y-170739066D01*
X120025232Y-170541046D01*
X119973500Y-170444264D01*
X119927685Y-170358549D01*
X119927684Y-170358548D01*
X119796411Y-170198590D01*
X119796409Y-170198588D01*
X119636451Y-170067315D01*
X119636450Y-170067314D01*
X119453950Y-169969766D01*
X119255933Y-169909699D01*
X119050000Y-169889417D01*
X118844066Y-169909699D01*
X118646049Y-169969766D01*
X118463549Y-170067314D01*
X118463548Y-170067315D01*
X118303590Y-170198588D01*
X118303588Y-170198590D01*
X118172315Y-170358548D01*
X118172314Y-170358549D01*
X118074766Y-170541049D01*
X118014699Y-170739066D01*
X117994417Y-170945000D01*
X117565583Y-170945000D01*
X117545300Y-170739066D01*
X117485232Y-170541046D01*
X117433500Y-170444264D01*
X117387685Y-170358549D01*
X117387684Y-170358548D01*
X117256411Y-170198590D01*
X117256409Y-170198588D01*
X117096451Y-170067315D01*
X117096450Y-170067314D01*
X116913950Y-169969766D01*
X116715933Y-169909699D01*
X116510000Y-169889417D01*
X116304066Y-169909699D01*
X116106049Y-169969766D01*
X115923549Y-170067314D01*
X115923548Y-170067315D01*
X115763590Y-170198588D01*
X115763588Y-170198590D01*
X115632315Y-170358548D01*
X115632314Y-170358549D01*
X115534766Y-170541049D01*
X115474699Y-170739066D01*
X115454417Y-170945000D01*
X87925500Y-170945000D01*
X87925500Y-168405000D01*
X115454417Y-168405000D01*
X115474699Y-168610933D01*
X115534766Y-168808950D01*
X115632314Y-168991450D01*
X115632315Y-168991451D01*
X115763588Y-169151409D01*
X115763590Y-169151411D01*
X115923548Y-169282684D01*
X115923549Y-169282685D01*
X116009264Y-169328500D01*
X116106046Y-169380232D01*
X116304066Y-169440300D01*
X116510000Y-169460583D01*
X116715934Y-169440300D01*
X116913954Y-169380232D01*
X117096450Y-169282685D01*
X117256410Y-169151410D01*
X117387685Y-168991450D01*
X117485232Y-168808954D01*
X117545300Y-168610934D01*
X117565583Y-168405000D01*
X117994417Y-168405000D01*
X118014699Y-168610933D01*
X118074766Y-168808950D01*
X118172314Y-168991450D01*
X118172315Y-168991451D01*
X118303588Y-169151409D01*
X118303590Y-169151411D01*
X118463548Y-169282684D01*
X118463549Y-169282685D01*
X118549264Y-169328500D01*
X118646046Y-169380232D01*
X118844066Y-169440300D01*
X119050000Y-169460583D01*
X119255934Y-169440300D01*
X119453954Y-169380232D01*
X119636450Y-169282685D01*
X119796410Y-169151410D01*
X119927685Y-168991450D01*
X120025232Y-168808954D01*
X120085300Y-168610934D01*
X120105583Y-168405000D01*
X120085300Y-168199066D01*
X120025232Y-168001046D01*
X119973500Y-167904264D01*
X119927685Y-167818549D01*
X119927684Y-167818548D01*
X119796411Y-167658590D01*
X119796409Y-167658588D01*
X119636451Y-167527315D01*
X119636450Y-167527314D01*
X119453950Y-167429766D01*
X119255933Y-167369699D01*
X119050000Y-167349417D01*
X118844066Y-167369699D01*
X118646049Y-167429766D01*
X118463549Y-167527314D01*
X118463548Y-167527315D01*
X118303590Y-167658588D01*
X118303588Y-167658590D01*
X118172315Y-167818548D01*
X118172314Y-167818549D01*
X118074766Y-168001049D01*
X118014699Y-168199066D01*
X117994417Y-168405000D01*
X117565583Y-168405000D01*
X117545300Y-168199066D01*
X117485232Y-168001046D01*
X117433500Y-167904264D01*
X117387685Y-167818549D01*
X117387684Y-167818548D01*
X117256411Y-167658590D01*
X117256409Y-167658588D01*
X117096451Y-167527315D01*
X117096450Y-167527314D01*
X116913950Y-167429766D01*
X116715933Y-167369699D01*
X116510000Y-167349417D01*
X116304066Y-167369699D01*
X116106049Y-167429766D01*
X115923549Y-167527314D01*
X115923548Y-167527315D01*
X115763590Y-167658588D01*
X115763588Y-167658590D01*
X115632315Y-167818548D01*
X115632314Y-167818549D01*
X115534766Y-168001049D01*
X115474699Y-168199066D01*
X115454417Y-168405000D01*
X87925500Y-168405000D01*
X87925500Y-165865000D01*
X115454417Y-165865000D01*
X115474699Y-166070933D01*
X115534766Y-166268950D01*
X115632314Y-166451450D01*
X115632315Y-166451451D01*
X115763588Y-166611409D01*
X115763590Y-166611411D01*
X115923548Y-166742684D01*
X115923549Y-166742685D01*
X116009264Y-166788500D01*
X116106046Y-166840232D01*
X116304066Y-166900300D01*
X116510000Y-166920583D01*
X116715934Y-166900300D01*
X116913954Y-166840232D01*
X117096450Y-166742685D01*
X117256410Y-166611410D01*
X117387685Y-166451450D01*
X117485232Y-166268954D01*
X117545300Y-166070934D01*
X117565583Y-165865000D01*
X117994417Y-165865000D01*
X118014699Y-166070933D01*
X118074766Y-166268950D01*
X118172314Y-166451450D01*
X118172315Y-166451451D01*
X118303588Y-166611409D01*
X118303590Y-166611411D01*
X118463548Y-166742684D01*
X118463549Y-166742685D01*
X118549264Y-166788500D01*
X118646046Y-166840232D01*
X118844066Y-166900300D01*
X119050000Y-166920583D01*
X119255934Y-166900300D01*
X119453954Y-166840232D01*
X119636450Y-166742685D01*
X119796410Y-166611410D01*
X119927685Y-166451450D01*
X120025232Y-166268954D01*
X120085300Y-166070934D01*
X120105583Y-165865000D01*
X120085300Y-165659066D01*
X120025232Y-165461046D01*
X119973500Y-165364264D01*
X119927685Y-165278549D01*
X119927684Y-165278548D01*
X119796411Y-165118590D01*
X119796409Y-165118588D01*
X119636451Y-164987315D01*
X119636450Y-164987314D01*
X119453950Y-164889766D01*
X119255933Y-164829699D01*
X119050000Y-164809417D01*
X118844066Y-164829699D01*
X118646049Y-164889766D01*
X118463549Y-164987314D01*
X118463548Y-164987315D01*
X118303590Y-165118588D01*
X118303588Y-165118590D01*
X118172315Y-165278548D01*
X118172314Y-165278549D01*
X118074766Y-165461049D01*
X118014699Y-165659066D01*
X117994417Y-165865000D01*
X117565583Y-165865000D01*
X117545300Y-165659066D01*
X117485232Y-165461046D01*
X117433500Y-165364264D01*
X117387685Y-165278549D01*
X117387684Y-165278548D01*
X117256411Y-165118590D01*
X117256409Y-165118588D01*
X117096451Y-164987315D01*
X117096450Y-164987314D01*
X116913950Y-164889766D01*
X116715933Y-164829699D01*
X116510000Y-164809417D01*
X116304066Y-164829699D01*
X116106049Y-164889766D01*
X115923549Y-164987314D01*
X115923548Y-164987315D01*
X115763590Y-165118588D01*
X115763588Y-165118590D01*
X115632315Y-165278548D01*
X115632314Y-165278549D01*
X115534766Y-165461049D01*
X115474699Y-165659066D01*
X115454417Y-165865000D01*
X87925500Y-165865000D01*
X87925500Y-163325000D01*
X100494750Y-163325000D01*
X100513670Y-163468709D01*
X100569139Y-163602625D01*
X100657379Y-163717621D01*
X100772375Y-163805861D01*
X100906291Y-163861330D01*
X101050000Y-163880250D01*
X101193709Y-163861330D01*
X101327625Y-163805861D01*
X101442621Y-163717621D01*
X101530861Y-163602625D01*
X101586330Y-163468709D01*
X101605250Y-163325000D01*
X101586330Y-163181291D01*
X101530861Y-163047375D01*
X101442621Y-162932379D01*
X101327625Y-162844139D01*
X101193709Y-162788670D01*
X101193706Y-162788669D01*
X101193704Y-162788669D01*
X101050000Y-162769750D01*
X100906295Y-162788669D01*
X100906291Y-162788670D01*
X100772375Y-162844139D01*
X100772371Y-162844141D01*
X100657379Y-162932379D01*
X100569141Y-163047371D01*
X100569139Y-163047375D01*
X100513670Y-163181291D01*
X100494750Y-163325000D01*
X87925500Y-163325000D01*
X87925500Y-159495248D01*
X115199500Y-159495248D01*
X115199500Y-162534751D01*
X115211131Y-162593224D01*
X115211132Y-162593228D01*
X115211133Y-162593231D01*
X115255448Y-162659552D01*
X115321769Y-162703867D01*
X115380248Y-162715499D01*
X115380249Y-162715500D01*
X115380252Y-162715500D01*
X118419751Y-162715500D01*
X118419751Y-162715499D01*
X118478231Y-162703867D01*
X118544552Y-162659552D01*
X118588867Y-162593231D01*
X118600499Y-162534751D01*
X118600500Y-162534751D01*
X118600500Y-159495249D01*
X118600499Y-159495248D01*
X118588868Y-159436775D01*
X118588867Y-159436769D01*
X118544552Y-159370448D01*
X118478231Y-159326133D01*
X118478228Y-159326132D01*
X118478224Y-159326131D01*
X118419751Y-159314500D01*
X118419748Y-159314500D01*
X115380252Y-159314500D01*
X115380249Y-159314500D01*
X115321775Y-159326131D01*
X115321769Y-159326133D01*
X115255448Y-159370448D01*
X115211133Y-159436769D01*
X115211131Y-159436775D01*
X115199500Y-159495248D01*
X87925500Y-159495248D01*
X87925500Y-158574999D01*
X101594353Y-158574999D01*
X101594353Y-158575000D01*
X101614835Y-158717457D01*
X101614836Y-158717461D01*
X101674622Y-158848371D01*
X101674622Y-158848372D01*
X101674623Y-158848373D01*
X101768872Y-158957143D01*
X101889947Y-159034953D01*
X102028039Y-159075500D01*
X102171961Y-159075500D01*
X102310053Y-159034953D01*
X102431128Y-158957143D01*
X102452020Y-158933031D01*
X102494108Y-158911962D01*
X102538770Y-158926824D01*
X102544976Y-158933031D01*
X102565870Y-158957144D01*
X102568866Y-158960601D01*
X102689941Y-159038411D01*
X102828033Y-159078958D01*
X102971955Y-159078958D01*
X103110047Y-159038411D01*
X103231122Y-158960601D01*
X103325371Y-158851831D01*
X103385159Y-158720915D01*
X103405641Y-158578458D01*
X103385159Y-158436001D01*
X103383579Y-158432542D01*
X103325371Y-158305086D01*
X103325371Y-158305085D01*
X103231122Y-158196315D01*
X103231119Y-158196313D01*
X103231118Y-158196312D01*
X103110049Y-158118506D01*
X103110042Y-158118503D01*
X103021070Y-158092379D01*
X102971955Y-158077958D01*
X102828033Y-158077958D01*
X102689945Y-158118503D01*
X102689938Y-158118506D01*
X102568869Y-158196312D01*
X102568866Y-158196314D01*
X102547973Y-158220426D01*
X102505881Y-158241494D01*
X102461220Y-158226629D01*
X102455017Y-158220426D01*
X102449131Y-158213634D01*
X102431128Y-158192857D01*
X102431125Y-158192855D01*
X102431124Y-158192854D01*
X102310055Y-158115048D01*
X102310048Y-158115045D01*
X102221076Y-158088921D01*
X102171961Y-158074500D01*
X102028039Y-158074500D01*
X101889951Y-158115045D01*
X101889944Y-158115048D01*
X101768875Y-158192854D01*
X101768874Y-158192855D01*
X101768872Y-158192856D01*
X101768872Y-158192857D01*
X101765877Y-158196314D01*
X101674622Y-158301627D01*
X101674622Y-158301628D01*
X101614836Y-158432538D01*
X101614835Y-158432542D01*
X101594353Y-158574999D01*
X87925500Y-158574999D01*
X87925500Y-154675000D01*
X105144750Y-154675000D01*
X105163670Y-154818709D01*
X105219139Y-154952625D01*
X105307379Y-155067621D01*
X105422375Y-155155861D01*
X105556291Y-155211330D01*
X105700000Y-155230250D01*
X105843709Y-155211330D01*
X105977625Y-155155861D01*
X106092621Y-155067621D01*
X106180861Y-154952625D01*
X106236330Y-154818709D01*
X106255250Y-154675000D01*
X106236330Y-154531291D01*
X106180861Y-154397375D01*
X106092621Y-154282379D01*
X105977625Y-154194139D01*
X105843709Y-154138670D01*
X105843706Y-154138669D01*
X105843704Y-154138669D01*
X105700000Y-154119750D01*
X105556295Y-154138669D01*
X105556291Y-154138670D01*
X105422375Y-154194139D01*
X105422371Y-154194141D01*
X105307379Y-154282379D01*
X105219141Y-154397371D01*
X105219139Y-154397375D01*
X105163670Y-154531291D01*
X105144750Y-154675000D01*
X87925500Y-154675000D01*
X87925500Y-152025000D01*
X95444750Y-152025000D01*
X95446016Y-152034620D01*
X95463670Y-152168709D01*
X95519139Y-152302625D01*
X95607379Y-152417621D01*
X95722375Y-152505861D01*
X95856291Y-152561330D01*
X96000000Y-152580250D01*
X96143709Y-152561330D01*
X96277625Y-152505861D01*
X96392621Y-152417621D01*
X96402328Y-152404970D01*
X96443091Y-152381435D01*
X96488557Y-152393617D01*
X96499908Y-152404968D01*
X96516999Y-152427241D01*
X96631995Y-152515481D01*
X96765911Y-152570950D01*
X96909620Y-152589870D01*
X97053329Y-152570950D01*
X97187245Y-152515481D01*
X97302241Y-152427241D01*
X97390481Y-152312245D01*
X97445950Y-152178329D01*
X97464870Y-152034620D01*
X97445950Y-151890911D01*
X97390481Y-151756995D01*
X97349800Y-151703979D01*
X100999500Y-151703979D01*
X100999500Y-151816020D01*
X101028495Y-151924232D01*
X101028496Y-151924234D01*
X101028497Y-151924237D01*
X101084515Y-152021263D01*
X101163737Y-152100485D01*
X101260763Y-152156503D01*
X101260767Y-152156504D01*
X101368980Y-152185500D01*
X101368982Y-152185500D01*
X101731019Y-152185500D01*
X101785652Y-152170861D01*
X101839237Y-152156503D01*
X101936263Y-152100485D01*
X102015485Y-152021263D01*
X102071503Y-151924237D01*
X102099779Y-151818709D01*
X102100500Y-151816020D01*
X102100500Y-151703979D01*
X102092735Y-151675000D01*
X102244750Y-151675000D01*
X102263315Y-151816018D01*
X102263670Y-151818709D01*
X102319139Y-151952625D01*
X102407379Y-152067621D01*
X102522375Y-152155861D01*
X102656291Y-152211330D01*
X102800000Y-152230250D01*
X102943709Y-152211330D01*
X103077625Y-152155861D01*
X103192621Y-152067621D01*
X103280861Y-151952625D01*
X103336330Y-151818709D01*
X103353275Y-151690000D01*
X105244750Y-151690000D01*
X105261694Y-151818704D01*
X105263670Y-151833709D01*
X105319139Y-151967625D01*
X105407379Y-152082621D01*
X105522375Y-152170861D01*
X105656291Y-152226330D01*
X105800000Y-152245250D01*
X105943709Y-152226330D01*
X106077625Y-152170861D01*
X106192621Y-152082621D01*
X106280861Y-151967625D01*
X106336330Y-151833709D01*
X106353410Y-151703979D01*
X107124500Y-151703979D01*
X107124500Y-151816020D01*
X107153495Y-151924232D01*
X107153496Y-151924234D01*
X107153497Y-151924237D01*
X107209515Y-152021263D01*
X107288737Y-152100485D01*
X107385763Y-152156503D01*
X107385767Y-152156504D01*
X107493980Y-152185500D01*
X107493982Y-152185500D01*
X107606019Y-152185500D01*
X107660652Y-152170861D01*
X107714237Y-152156503D01*
X107811263Y-152100485D01*
X107890485Y-152021263D01*
X107946503Y-151924237D01*
X107974779Y-151818709D01*
X107975500Y-151816020D01*
X107975500Y-151703979D01*
X107946504Y-151595767D01*
X107946503Y-151595763D01*
X107890485Y-151498737D01*
X107811263Y-151419515D01*
X107714237Y-151363497D01*
X107714234Y-151363496D01*
X107714232Y-151363495D01*
X107606020Y-151334500D01*
X107606018Y-151334500D01*
X107493982Y-151334500D01*
X107493980Y-151334500D01*
X107385767Y-151363495D01*
X107385763Y-151363497D01*
X107288738Y-151419514D01*
X107288733Y-151419518D01*
X107209518Y-151498733D01*
X107209514Y-151498738D01*
X107153497Y-151595763D01*
X107153495Y-151595767D01*
X107124500Y-151703979D01*
X106353410Y-151703979D01*
X106355250Y-151690000D01*
X106336330Y-151546291D01*
X106280861Y-151412375D01*
X106192621Y-151297379D01*
X106077625Y-151209139D01*
X105943709Y-151153670D01*
X105943706Y-151153669D01*
X105943704Y-151153669D01*
X105800000Y-151134750D01*
X105656295Y-151153669D01*
X105656291Y-151153670D01*
X105522375Y-151209139D01*
X105522371Y-151209141D01*
X105407379Y-151297379D01*
X105319141Y-151412371D01*
X105319139Y-151412375D01*
X105263670Y-151546291D01*
X105263669Y-151546295D01*
X105244750Y-151690000D01*
X103353275Y-151690000D01*
X103355250Y-151675000D01*
X103336330Y-151531291D01*
X103280861Y-151397375D01*
X103192621Y-151282379D01*
X103077625Y-151194139D01*
X102943709Y-151138670D01*
X102943706Y-151138669D01*
X102943704Y-151138669D01*
X102800000Y-151119750D01*
X102656295Y-151138669D01*
X102656291Y-151138670D01*
X102522375Y-151194139D01*
X102522371Y-151194141D01*
X102407379Y-151282379D01*
X102319141Y-151397371D01*
X102319139Y-151397375D01*
X102263670Y-151531291D01*
X102263669Y-151531295D01*
X102244750Y-151675000D01*
X102092735Y-151675000D01*
X102071504Y-151595767D01*
X102071503Y-151595763D01*
X102015485Y-151498737D01*
X101936263Y-151419515D01*
X101839237Y-151363497D01*
X101839234Y-151363496D01*
X101839232Y-151363495D01*
X101731020Y-151334500D01*
X101731018Y-151334500D01*
X101368982Y-151334500D01*
X101368980Y-151334500D01*
X101260767Y-151363495D01*
X101260763Y-151363497D01*
X101163738Y-151419514D01*
X101163733Y-151419518D01*
X101084518Y-151498733D01*
X101084514Y-151498738D01*
X101028497Y-151595763D01*
X101028495Y-151595767D01*
X100999500Y-151703979D01*
X97349800Y-151703979D01*
X97302241Y-151641999D01*
X97187245Y-151553759D01*
X97053329Y-151498290D01*
X97053326Y-151498289D01*
X97053324Y-151498289D01*
X96909620Y-151479370D01*
X96765915Y-151498289D01*
X96765911Y-151498290D01*
X96631995Y-151553759D01*
X96631991Y-151553761D01*
X96516999Y-151641998D01*
X96507289Y-151654652D01*
X96466524Y-151678184D01*
X96421058Y-151665999D01*
X96409709Y-151654648D01*
X96392623Y-151632381D01*
X96392621Y-151632379D01*
X96277628Y-151544141D01*
X96277626Y-151544140D01*
X96277625Y-151544139D01*
X96143709Y-151488670D01*
X96143706Y-151488669D01*
X96143704Y-151488669D01*
X96000000Y-151469750D01*
X95856295Y-151488669D01*
X95856291Y-151488670D01*
X95722375Y-151544139D01*
X95722371Y-151544141D01*
X95607379Y-151632379D01*
X95519141Y-151747371D01*
X95519139Y-151747375D01*
X95463670Y-151881291D01*
X95463669Y-151881295D01*
X95444750Y-152025000D01*
X87925500Y-152025000D01*
X87925500Y-150176616D01*
X87925542Y-150175000D01*
X89794357Y-150175000D01*
X89814892Y-150422824D01*
X89814892Y-150422826D01*
X89875935Y-150663875D01*
X89875938Y-150663885D01*
X89975825Y-150891602D01*
X89975829Y-150891611D01*
X90111831Y-151099778D01*
X90111836Y-151099785D01*
X90280256Y-151282738D01*
X90280258Y-151282739D01*
X90280258Y-151282740D01*
X90346760Y-151334500D01*
X90476491Y-151435474D01*
X90695190Y-151553828D01*
X90930386Y-151634571D01*
X90930389Y-151634571D01*
X90930390Y-151634572D01*
X91050703Y-151654648D01*
X91175665Y-151675500D01*
X91424335Y-151675500D01*
X91625106Y-151641998D01*
X91669609Y-151634572D01*
X91669609Y-151634571D01*
X91669614Y-151634571D01*
X91904810Y-151553828D01*
X92123509Y-151435474D01*
X92319744Y-151282738D01*
X92488164Y-151099785D01*
X92624173Y-150891607D01*
X92724063Y-150663881D01*
X92785108Y-150422821D01*
X92805643Y-150175000D01*
X116294357Y-150175000D01*
X116314892Y-150422824D01*
X116314892Y-150422826D01*
X116375935Y-150663875D01*
X116375938Y-150663885D01*
X116475825Y-150891602D01*
X116475829Y-150891611D01*
X116611831Y-151099778D01*
X116611836Y-151099785D01*
X116780256Y-151282738D01*
X116780258Y-151282739D01*
X116780258Y-151282740D01*
X116846760Y-151334500D01*
X116976491Y-151435474D01*
X117195190Y-151553828D01*
X117430386Y-151634571D01*
X117430389Y-151634571D01*
X117430390Y-151634572D01*
X117550703Y-151654648D01*
X117675665Y-151675500D01*
X117924335Y-151675500D01*
X118125106Y-151641998D01*
X118169609Y-151634572D01*
X118169609Y-151634571D01*
X118169614Y-151634571D01*
X118404810Y-151553828D01*
X118623509Y-151435474D01*
X118819744Y-151282738D01*
X118988164Y-151099785D01*
X119124173Y-150891607D01*
X119224063Y-150663881D01*
X119285108Y-150422821D01*
X119305643Y-150175000D01*
X119285108Y-149927179D01*
X119285107Y-149927175D01*
X119285107Y-149927173D01*
X119224064Y-149686124D01*
X119224063Y-149686119D01*
X119124173Y-149458393D01*
X118988164Y-149250215D01*
X118819744Y-149067262D01*
X118819741Y-149067259D01*
X118623510Y-148914527D01*
X118623509Y-148914526D01*
X118404810Y-148796172D01*
X118169614Y-148715429D01*
X118169613Y-148715428D01*
X118169611Y-148715428D01*
X118169609Y-148715427D01*
X117924338Y-148674500D01*
X117924335Y-148674500D01*
X117675665Y-148674500D01*
X117675661Y-148674500D01*
X117430390Y-148715427D01*
X117430388Y-148715428D01*
X117195192Y-148796171D01*
X116976489Y-148914527D01*
X116780258Y-149067259D01*
X116780258Y-149067260D01*
X116611835Y-149250215D01*
X116611831Y-149250221D01*
X116475829Y-149458388D01*
X116475825Y-149458397D01*
X116375938Y-149686114D01*
X116375935Y-149686124D01*
X116314892Y-149927173D01*
X116314892Y-149927175D01*
X116294357Y-150175000D01*
X92805643Y-150175000D01*
X92785108Y-149927179D01*
X92785107Y-149927175D01*
X92785107Y-149927173D01*
X92724064Y-149686124D01*
X92724063Y-149686119D01*
X92624173Y-149458393D01*
X92488164Y-149250215D01*
X92319744Y-149067262D01*
X92319741Y-149067259D01*
X92123510Y-148914527D01*
X92123509Y-148914526D01*
X91904810Y-148796172D01*
X91669614Y-148715429D01*
X91669613Y-148715428D01*
X91669611Y-148715428D01*
X91669609Y-148715427D01*
X91424338Y-148674500D01*
X91424335Y-148674500D01*
X91175665Y-148674500D01*
X91175661Y-148674500D01*
X90930390Y-148715427D01*
X90930388Y-148715428D01*
X90695192Y-148796171D01*
X90476489Y-148914527D01*
X90280258Y-149067259D01*
X90280258Y-149067260D01*
X90111835Y-149250215D01*
X90111831Y-149250221D01*
X89975829Y-149458388D01*
X89975825Y-149458397D01*
X89875938Y-149686114D01*
X89875935Y-149686124D01*
X89814892Y-149927173D01*
X89814892Y-149927175D01*
X89794357Y-150175000D01*
X87925542Y-150175000D01*
X87925584Y-150173397D01*
X87943817Y-149825486D01*
X87944490Y-149819084D01*
X87965549Y-149686124D01*
X87998740Y-149476560D01*
X88000072Y-149470300D01*
X88089828Y-149135324D01*
X88091808Y-149129231D01*
X88216088Y-148805469D01*
X88218704Y-148799595D01*
X88220449Y-148796171D01*
X88376143Y-148490601D01*
X88379342Y-148485062D01*
X88568219Y-148194217D01*
X88571988Y-148189028D01*
X88790244Y-147919505D01*
X88794524Y-147914752D01*
X89039752Y-147669524D01*
X89044505Y-147665244D01*
X89314028Y-147446988D01*
X89319221Y-147443217D01*
X89610062Y-147254342D01*
X89615601Y-147251143D01*
X89924600Y-147093701D01*
X89930469Y-147091088D01*
X90254231Y-146966808D01*
X90260324Y-146964828D01*
X90595300Y-146875072D01*
X90601560Y-146873740D01*
X90944092Y-146819489D01*
X90950478Y-146818817D01*
X91298397Y-146800583D01*
X91301616Y-146800500D01*
X91328644Y-146800500D01*
X117771356Y-146800500D01*
X117798384Y-146800500D01*
X117801602Y-146800583D01*
G37*
%TD.AperFunction*%
%TD*%
M02*
