%TF.GenerationSoftware,KiCad,Pcbnew,8.0.6*%
%TF.CreationDate,2024-11-24T22:42:30+01:00*%
%TF.ProjectId,ecad,65636164-2e6b-4696-9361-645f70636258,rev?*%
%TF.SameCoordinates,Original*%
%TF.FileFunction,Copper,L3,Inr*%
%TF.FilePolarity,Positive*%
%FSLAX46Y46*%
G04 Gerber Fmt 4.6, Leading zero omitted, Abs format (unit mm)*
G04 Created by KiCad (PCBNEW 8.0.6) date 2024-11-24 22:42:30*
%MOMM*%
%LPD*%
G01*
G04 APERTURE LIST*
%TA.AperFunction,ComponentPad*%
%ADD10O,1.300000X2.300000*%
%TD*%
%TA.AperFunction,ComponentPad*%
%ADD11O,1.300000X2.600000*%
%TD*%
%TA.AperFunction,ComponentPad*%
%ADD12R,3.000000X3.000000*%
%TD*%
%TA.AperFunction,ComponentPad*%
%ADD13C,3.000000*%
%TD*%
%TA.AperFunction,ComponentPad*%
%ADD14C,2.600000*%
%TD*%
%TA.AperFunction,ComponentPad*%
%ADD15R,1.700000X1.700000*%
%TD*%
%TA.AperFunction,ComponentPad*%
%ADD16O,1.700000X1.700000*%
%TD*%
%TA.AperFunction,ViaPad*%
%ADD17C,0.700000*%
%TD*%
%TA.AperFunction,ViaPad*%
%ADD18C,0.600000*%
%TD*%
G04 APERTURE END LIST*
D10*
%TO.N,GND*%
%TO.C,J1*%
X108870000Y-152485000D03*
D11*
X108870000Y-148660000D03*
D10*
X100230000Y-152485000D03*
D11*
X100230000Y-148660000D03*
%TD*%
D12*
%TO.N,VCC*%
%TO.C,J3*%
X116900000Y-161015000D03*
D13*
%TO.N,GND*%
X116900000Y-155935000D03*
%TD*%
D14*
%TO.N,N/C*%
%TO.C,H2*%
X91300000Y-193175000D03*
%TD*%
%TO.N,N/C*%
%TO.C,H4*%
X91300000Y-150175000D03*
%TD*%
%TO.N,N/C*%
%TO.C,H3*%
X117800000Y-150175000D03*
%TD*%
%TO.N,N/C*%
%TO.C,H1*%
X117800000Y-193175000D03*
%TD*%
D15*
%TO.N,unconnected-(J4-Pin_1-Pad1)*%
%TO.C,J4*%
X116510000Y-188725000D03*
D16*
%TO.N,unconnected-(J4-Pin_2-Pad2)*%
X119050000Y-188725000D03*
%TO.N,unconnected-(J4-Pin_3-Pad3)*%
X116510000Y-186185000D03*
%TO.N,unconnected-(J4-Pin_4-Pad4)*%
X119050000Y-186185000D03*
%TO.N,unconnected-(J4-Pin_5-Pad5)*%
X116510000Y-183645000D03*
%TO.N,unconnected-(J4-Pin_6-Pad6)*%
X119050000Y-183645000D03*
%TO.N,unconnected-(J4-Pin_7-Pad7)*%
X116510000Y-181105000D03*
%TO.N,unconnected-(J4-Pin_8-Pad8)*%
X119050000Y-181105000D03*
%TO.N,unconnected-(J4-Pin_9-Pad9)*%
X116510000Y-178565000D03*
%TO.N,unconnected-(J4-Pin_10-Pad10)*%
X119050000Y-178565000D03*
%TO.N,unconnected-(J4-Pin_11-Pad11)*%
X116510000Y-176025000D03*
%TO.N,unconnected-(J4-Pin_12-Pad12)*%
X119050000Y-176025000D03*
%TO.N,unconnected-(J4-Pin_13-Pad13)*%
X116510000Y-173485000D03*
%TO.N,unconnected-(J4-Pin_14-Pad14)*%
X119050000Y-173485000D03*
%TO.N,unconnected-(J4-Pin_15-Pad15)*%
X116510000Y-170945000D03*
%TO.N,unconnected-(J4-Pin_16-Pad16)*%
X119050000Y-170945000D03*
%TO.N,unconnected-(J4-Pin_17-Pad17)*%
X116510000Y-168405000D03*
%TO.N,unconnected-(J4-Pin_18-Pad18)*%
X119050000Y-168405000D03*
%TO.N,unconnected-(J4-Pin_19-Pad19)*%
X116510000Y-165865000D03*
%TO.N,unconnected-(J4-Pin_20-Pad20)*%
X119050000Y-165865000D03*
%TD*%
D17*
%TO.N,GND*%
X101150000Y-157425000D03*
X100350000Y-157425000D03*
X100350000Y-155125000D03*
X101150000Y-155125000D03*
X114200000Y-176625000D03*
%TO.N,Net-(U2-OTP)*%
X101050000Y-163325000D03*
%TO.N,Net-(J1-CC1)*%
X105800000Y-151690000D03*
%TO.N,Net-(J1-CC2)*%
X96909620Y-152034620D03*
%TO.N,Net-(J1-CC1)*%
X96000000Y-152025000D03*
%TO.N,GND*%
X95349999Y-152878907D03*
%TO.N,Net-(J1-CC2)*%
X102800000Y-151675000D03*
%TO.N,GND*%
X113200000Y-148775000D03*
%TO.N,Net-(U2-OTP)*%
X105700000Y-154675000D03*
%TO.N,+3V3*%
X109400000Y-175275000D03*
X108600000Y-175275000D03*
X107800000Y-175275000D03*
X107000000Y-175275000D03*
X106200000Y-175275000D03*
%TO.N,GND*%
X108600000Y-171375000D03*
X107800000Y-171375000D03*
X107000000Y-171375000D03*
X106200000Y-171375000D03*
X107800000Y-170275000D03*
X107000000Y-170275000D03*
X98165000Y-162625000D03*
X101000000Y-164575000D03*
X106200000Y-165025000D03*
X103400000Y-154675000D03*
D18*
%TO.N,Net-(U2-SDA)*%
X102899994Y-158578458D03*
%TO.N,Net-(U2-SCL)*%
X102100000Y-158575000D03*
D17*
%TO.N,GND*%
X106200000Y-170275000D03*
X95800000Y-158325000D03*
X97600000Y-158325000D03*
%TD*%
%TA.AperFunction,Conductor*%
%TO.N,+3V3*%
G36*
X117801602Y-146800583D02*
G01*
X118149519Y-146818817D01*
X118155909Y-146819489D01*
X118498435Y-146873740D01*
X118504703Y-146875073D01*
X118839669Y-146964827D01*
X118845774Y-146966810D01*
X119092593Y-147061555D01*
X119169524Y-147091086D01*
X119175404Y-147093704D01*
X119484389Y-147251139D01*
X119489945Y-147254347D01*
X119497817Y-147259459D01*
X119780778Y-147443217D01*
X119785979Y-147446995D01*
X120055484Y-147665236D01*
X120060257Y-147669534D01*
X120305465Y-147914742D01*
X120309764Y-147919516D01*
X120527999Y-148189013D01*
X120531782Y-148194221D01*
X120720646Y-148485044D01*
X120723865Y-148490619D01*
X120881295Y-148799595D01*
X120883913Y-148805475D01*
X121008186Y-149129216D01*
X121010175Y-149135339D01*
X121099923Y-149470282D01*
X121101262Y-149476578D01*
X121138686Y-149712867D01*
X121149243Y-149779518D01*
X121150000Y-149789139D01*
X121150000Y-193560859D01*
X121149243Y-193570480D01*
X121101262Y-193873421D01*
X121099923Y-193879717D01*
X121010175Y-194214660D01*
X121008186Y-194220783D01*
X120883913Y-194544524D01*
X120881295Y-194550404D01*
X120723865Y-194859380D01*
X120720646Y-194864955D01*
X120531782Y-195155778D01*
X120527999Y-195160986D01*
X120309773Y-195430473D01*
X120305465Y-195435257D01*
X120060257Y-195680465D01*
X120055473Y-195684773D01*
X119785986Y-195902999D01*
X119780778Y-195906782D01*
X119489955Y-196095646D01*
X119484380Y-196098865D01*
X119175404Y-196256295D01*
X119169524Y-196258913D01*
X118845783Y-196383186D01*
X118839660Y-196385175D01*
X118504717Y-196474923D01*
X118498421Y-196476262D01*
X118155915Y-196530509D01*
X118149513Y-196531182D01*
X117801603Y-196549416D01*
X117798384Y-196549500D01*
X111211500Y-196549500D01*
X111168013Y-196531487D01*
X111150000Y-196488000D01*
X111150000Y-193175000D01*
X116294357Y-193175000D01*
X116314892Y-193422824D01*
X116314892Y-193422826D01*
X116375935Y-193663875D01*
X116375938Y-193663885D01*
X116455462Y-193845181D01*
X116469243Y-193876598D01*
X116475825Y-193891602D01*
X116475829Y-193891611D01*
X116611831Y-194099778D01*
X116611836Y-194099785D01*
X116780256Y-194282738D01*
X116780258Y-194282739D01*
X116780258Y-194282740D01*
X116878373Y-194359106D01*
X116976491Y-194435474D01*
X117195190Y-194553828D01*
X117430386Y-194634571D01*
X117430389Y-194634571D01*
X117430390Y-194634572D01*
X117553025Y-194655035D01*
X117675665Y-194675500D01*
X117924335Y-194675500D01*
X118108513Y-194644766D01*
X118169609Y-194634572D01*
X118169609Y-194634571D01*
X118169614Y-194634571D01*
X118404810Y-194553828D01*
X118623509Y-194435474D01*
X118819744Y-194282738D01*
X118988164Y-194099785D01*
X119124173Y-193891607D01*
X119224063Y-193663881D01*
X119285108Y-193422821D01*
X119305643Y-193175000D01*
X119285108Y-192927179D01*
X119285107Y-192927175D01*
X119285107Y-192927173D01*
X119224064Y-192686124D01*
X119224063Y-192686119D01*
X119124173Y-192458393D01*
X118988164Y-192250215D01*
X118819744Y-192067262D01*
X118819741Y-192067259D01*
X118623510Y-191914527D01*
X118623509Y-191914526D01*
X118404810Y-191796172D01*
X118169614Y-191715429D01*
X118169613Y-191715428D01*
X118169611Y-191715428D01*
X118169609Y-191715427D01*
X117924338Y-191674500D01*
X117924335Y-191674500D01*
X117675665Y-191674500D01*
X117675661Y-191674500D01*
X117430390Y-191715427D01*
X117430388Y-191715428D01*
X117195192Y-191796171D01*
X116976489Y-191914527D01*
X116780258Y-192067259D01*
X116780258Y-192067260D01*
X116611835Y-192250215D01*
X116611831Y-192250221D01*
X116475829Y-192458388D01*
X116475825Y-192458397D01*
X116375938Y-192686114D01*
X116375935Y-192686124D01*
X116314892Y-192927173D01*
X116314892Y-192927175D01*
X116294357Y-193175000D01*
X111150000Y-193175000D01*
X111150000Y-191075000D01*
X97950000Y-191075000D01*
X97950000Y-196488000D01*
X97931987Y-196531487D01*
X97888500Y-196549500D01*
X91301616Y-196549500D01*
X91298397Y-196549416D01*
X90950486Y-196531182D01*
X90944084Y-196530509D01*
X90601578Y-196476262D01*
X90595282Y-196474923D01*
X90260339Y-196385175D01*
X90254216Y-196383186D01*
X89930475Y-196258913D01*
X89924595Y-196256295D01*
X89615619Y-196098865D01*
X89610044Y-196095646D01*
X89319221Y-195906782D01*
X89314013Y-195902999D01*
X89044516Y-195684764D01*
X89039742Y-195680465D01*
X88794534Y-195435257D01*
X88790236Y-195430484D01*
X88571995Y-195160979D01*
X88568217Y-195155778D01*
X88493761Y-195041127D01*
X88379347Y-194864945D01*
X88376139Y-194859389D01*
X88248522Y-194608926D01*
X88218704Y-194550404D01*
X88216086Y-194544524D01*
X88205794Y-194517713D01*
X88091810Y-194220774D01*
X88089827Y-194214669D01*
X88000073Y-193879703D01*
X87998740Y-193873435D01*
X87944489Y-193530909D01*
X87943817Y-193524513D01*
X87925584Y-193176602D01*
X87925542Y-193175000D01*
X89794357Y-193175000D01*
X89814892Y-193422824D01*
X89814892Y-193422826D01*
X89875935Y-193663875D01*
X89875938Y-193663885D01*
X89955462Y-193845181D01*
X89969243Y-193876598D01*
X89975825Y-193891602D01*
X89975829Y-193891611D01*
X90111831Y-194099778D01*
X90111836Y-194099785D01*
X90280256Y-194282738D01*
X90280258Y-194282739D01*
X90280258Y-194282740D01*
X90378373Y-194359106D01*
X90476491Y-194435474D01*
X90695190Y-194553828D01*
X90930386Y-194634571D01*
X90930389Y-194634571D01*
X90930390Y-194634572D01*
X91053025Y-194655035D01*
X91175665Y-194675500D01*
X91424335Y-194675500D01*
X91608513Y-194644766D01*
X91669609Y-194634572D01*
X91669609Y-194634571D01*
X91669614Y-194634571D01*
X91904810Y-194553828D01*
X92123509Y-194435474D01*
X92319744Y-194282738D01*
X92488164Y-194099785D01*
X92624173Y-193891607D01*
X92724063Y-193663881D01*
X92785108Y-193422821D01*
X92805643Y-193175000D01*
X92785108Y-192927179D01*
X92785107Y-192927175D01*
X92785107Y-192927173D01*
X92724064Y-192686124D01*
X92724063Y-192686119D01*
X92624173Y-192458393D01*
X92488164Y-192250215D01*
X92319744Y-192067262D01*
X92319741Y-192067259D01*
X92123510Y-191914527D01*
X92123509Y-191914526D01*
X91904810Y-191796172D01*
X91669614Y-191715429D01*
X91669613Y-191715428D01*
X91669611Y-191715428D01*
X91669609Y-191715427D01*
X91424338Y-191674500D01*
X91424335Y-191674500D01*
X91175665Y-191674500D01*
X91175661Y-191674500D01*
X90930390Y-191715427D01*
X90930388Y-191715428D01*
X90695192Y-191796171D01*
X90476489Y-191914527D01*
X90280258Y-192067259D01*
X90280258Y-192067260D01*
X90111835Y-192250215D01*
X90111831Y-192250221D01*
X89975829Y-192458388D01*
X89975825Y-192458397D01*
X89875938Y-192686114D01*
X89875935Y-192686124D01*
X89814892Y-192927173D01*
X89814892Y-192927175D01*
X89794357Y-193175000D01*
X87925542Y-193175000D01*
X87925500Y-193173383D01*
X87925500Y-187855248D01*
X115459500Y-187855248D01*
X115459500Y-189594751D01*
X115471131Y-189653224D01*
X115471132Y-189653228D01*
X115471133Y-189653231D01*
X115515448Y-189719552D01*
X115581769Y-189763867D01*
X115640248Y-189775499D01*
X115640249Y-189775500D01*
X115640252Y-189775500D01*
X117379751Y-189775500D01*
X117379751Y-189775499D01*
X117438231Y-189763867D01*
X117504552Y-189719552D01*
X117548867Y-189653231D01*
X117560499Y-189594751D01*
X117560500Y-189594751D01*
X117560500Y-188725000D01*
X117994417Y-188725000D01*
X118014699Y-188930933D01*
X118074766Y-189128950D01*
X118172314Y-189311450D01*
X118172315Y-189311451D01*
X118303588Y-189471409D01*
X118303590Y-189471411D01*
X118463548Y-189602684D01*
X118463549Y-189602685D01*
X118549264Y-189648500D01*
X118646046Y-189700232D01*
X118844066Y-189760300D01*
X119050000Y-189780583D01*
X119255934Y-189760300D01*
X119453954Y-189700232D01*
X119636450Y-189602685D01*
X119796410Y-189471410D01*
X119927685Y-189311450D01*
X120025232Y-189128954D01*
X120085300Y-188930934D01*
X120105583Y-188725000D01*
X120085300Y-188519066D01*
X120025232Y-188321046D01*
X119973500Y-188224264D01*
X119927685Y-188138549D01*
X119927684Y-188138548D01*
X119796411Y-187978590D01*
X119796409Y-187978588D01*
X119636451Y-187847315D01*
X119636450Y-187847314D01*
X119453950Y-187749766D01*
X119255933Y-187689699D01*
X119050000Y-187669417D01*
X118844066Y-187689699D01*
X118646049Y-187749766D01*
X118463549Y-187847314D01*
X118463548Y-187847315D01*
X118303590Y-187978588D01*
X118303588Y-187978590D01*
X118172315Y-188138548D01*
X118172314Y-188138549D01*
X118074766Y-188321049D01*
X118014699Y-188519066D01*
X117994417Y-188725000D01*
X117560500Y-188725000D01*
X117560500Y-187855249D01*
X117560499Y-187855248D01*
X117548868Y-187796775D01*
X117548867Y-187796769D01*
X117504552Y-187730448D01*
X117438231Y-187686133D01*
X117438228Y-187686132D01*
X117438224Y-187686131D01*
X117379751Y-187674500D01*
X117379748Y-187674500D01*
X115640252Y-187674500D01*
X115640249Y-187674500D01*
X115581775Y-187686131D01*
X115581769Y-187686133D01*
X115515448Y-187730448D01*
X115471133Y-187796769D01*
X115471131Y-187796775D01*
X115459500Y-187855248D01*
X87925500Y-187855248D01*
X87925500Y-186185000D01*
X115454417Y-186185000D01*
X115474699Y-186390933D01*
X115534766Y-186588950D01*
X115632314Y-186771450D01*
X115632315Y-186771451D01*
X115763588Y-186931409D01*
X115763590Y-186931411D01*
X115923548Y-187062684D01*
X115923549Y-187062685D01*
X116009264Y-187108500D01*
X116106046Y-187160232D01*
X116304066Y-187220300D01*
X116510000Y-187240583D01*
X116715934Y-187220300D01*
X116913954Y-187160232D01*
X117096450Y-187062685D01*
X117256410Y-186931410D01*
X117387685Y-186771450D01*
X117485232Y-186588954D01*
X117545300Y-186390934D01*
X117565583Y-186185000D01*
X117994417Y-186185000D01*
X118014699Y-186390933D01*
X118074766Y-186588950D01*
X118172314Y-186771450D01*
X118172315Y-186771451D01*
X118303588Y-186931409D01*
X118303590Y-186931411D01*
X118463548Y-187062684D01*
X118463549Y-187062685D01*
X118549264Y-187108500D01*
X118646046Y-187160232D01*
X118844066Y-187220300D01*
X119050000Y-187240583D01*
X119255934Y-187220300D01*
X119453954Y-187160232D01*
X119636450Y-187062685D01*
X119796410Y-186931410D01*
X119927685Y-186771450D01*
X120025232Y-186588954D01*
X120085300Y-186390934D01*
X120105583Y-186185000D01*
X120085300Y-185979066D01*
X120025232Y-185781046D01*
X119973500Y-185684264D01*
X119927685Y-185598549D01*
X119927684Y-185598548D01*
X119796411Y-185438590D01*
X119796409Y-185438588D01*
X119636451Y-185307315D01*
X119636450Y-185307314D01*
X119453950Y-185209766D01*
X119255933Y-185149699D01*
X119050000Y-185129417D01*
X118844066Y-185149699D01*
X118646049Y-185209766D01*
X118463549Y-185307314D01*
X118463548Y-185307315D01*
X118303590Y-185438588D01*
X118303588Y-185438590D01*
X118172315Y-185598548D01*
X118172314Y-185598549D01*
X118074766Y-185781049D01*
X118014699Y-185979066D01*
X117994417Y-186185000D01*
X117565583Y-186185000D01*
X117545300Y-185979066D01*
X117485232Y-185781046D01*
X117433500Y-185684264D01*
X117387685Y-185598549D01*
X117387684Y-185598548D01*
X117256411Y-185438590D01*
X117256409Y-185438588D01*
X117096451Y-185307315D01*
X117096450Y-185307314D01*
X116913950Y-185209766D01*
X116715933Y-185149699D01*
X116510000Y-185129417D01*
X116304066Y-185149699D01*
X116106049Y-185209766D01*
X115923549Y-185307314D01*
X115923548Y-185307315D01*
X115763590Y-185438588D01*
X115763588Y-185438590D01*
X115632315Y-185598548D01*
X115632314Y-185598549D01*
X115534766Y-185781049D01*
X115474699Y-185979066D01*
X115454417Y-186185000D01*
X87925500Y-186185000D01*
X87925500Y-183645000D01*
X115454417Y-183645000D01*
X115474699Y-183850933D01*
X115534766Y-184048950D01*
X115632314Y-184231450D01*
X115632315Y-184231451D01*
X115763588Y-184391409D01*
X115763590Y-184391411D01*
X115923548Y-184522684D01*
X115923549Y-184522685D01*
X116009264Y-184568500D01*
X116106046Y-184620232D01*
X116304066Y-184680300D01*
X116510000Y-184700583D01*
X116715934Y-184680300D01*
X116913954Y-184620232D01*
X117096450Y-184522685D01*
X117256410Y-184391410D01*
X117387685Y-184231450D01*
X117485232Y-184048954D01*
X117545300Y-183850934D01*
X117565583Y-183645000D01*
X117994417Y-183645000D01*
X118014699Y-183850933D01*
X118074766Y-184048950D01*
X118172314Y-184231450D01*
X118172315Y-184231451D01*
X118303588Y-184391409D01*
X118303590Y-184391411D01*
X118463548Y-184522684D01*
X118463549Y-184522685D01*
X118549264Y-184568500D01*
X118646046Y-184620232D01*
X118844066Y-184680300D01*
X119050000Y-184700583D01*
X119255934Y-184680300D01*
X119453954Y-184620232D01*
X119636450Y-184522685D01*
X119796410Y-184391410D01*
X119927685Y-184231450D01*
X120025232Y-184048954D01*
X120085300Y-183850934D01*
X120105583Y-183645000D01*
X120085300Y-183439066D01*
X120025232Y-183241046D01*
X119973500Y-183144264D01*
X119927685Y-183058549D01*
X119927684Y-183058548D01*
X119796411Y-182898590D01*
X119796409Y-182898588D01*
X119636451Y-182767315D01*
X119636450Y-182767314D01*
X119453950Y-182669766D01*
X119255933Y-182609699D01*
X119050000Y-182589417D01*
X118844066Y-182609699D01*
X118646049Y-182669766D01*
X118463549Y-182767314D01*
X118463548Y-182767315D01*
X118303590Y-182898588D01*
X118303588Y-182898590D01*
X118172315Y-183058548D01*
X118172314Y-183058549D01*
X118074766Y-183241049D01*
X118014699Y-183439066D01*
X117994417Y-183645000D01*
X117565583Y-183645000D01*
X117545300Y-183439066D01*
X117485232Y-183241046D01*
X117433500Y-183144264D01*
X117387685Y-183058549D01*
X117387684Y-183058548D01*
X117256411Y-182898590D01*
X117256409Y-182898588D01*
X117096451Y-182767315D01*
X117096450Y-182767314D01*
X116913950Y-182669766D01*
X116715933Y-182609699D01*
X116510000Y-182589417D01*
X116304066Y-182609699D01*
X116106049Y-182669766D01*
X115923549Y-182767314D01*
X115923548Y-182767315D01*
X115763590Y-182898588D01*
X115763588Y-182898590D01*
X115632315Y-183058548D01*
X115632314Y-183058549D01*
X115534766Y-183241049D01*
X115474699Y-183439066D01*
X115454417Y-183645000D01*
X87925500Y-183645000D01*
X87925500Y-181105000D01*
X115454417Y-181105000D01*
X115474699Y-181310933D01*
X115534766Y-181508950D01*
X115632314Y-181691450D01*
X115632315Y-181691451D01*
X115763588Y-181851409D01*
X115763590Y-181851411D01*
X115923548Y-181982684D01*
X115923549Y-181982685D01*
X116009264Y-182028500D01*
X116106046Y-182080232D01*
X116304066Y-182140300D01*
X116510000Y-182160583D01*
X116715934Y-182140300D01*
X116913954Y-182080232D01*
X117096450Y-181982685D01*
X117256410Y-181851410D01*
X117387685Y-181691450D01*
X117485232Y-181508954D01*
X117545300Y-181310934D01*
X117565583Y-181105000D01*
X117994417Y-181105000D01*
X118014699Y-181310933D01*
X118074766Y-181508950D01*
X118172314Y-181691450D01*
X118172315Y-181691451D01*
X118303588Y-181851409D01*
X118303590Y-181851411D01*
X118463548Y-181982684D01*
X118463549Y-181982685D01*
X118549264Y-182028500D01*
X118646046Y-182080232D01*
X118844066Y-182140300D01*
X119050000Y-182160583D01*
X119255934Y-182140300D01*
X119453954Y-182080232D01*
X119636450Y-181982685D01*
X119796410Y-181851410D01*
X119927685Y-181691450D01*
X120025232Y-181508954D01*
X120085300Y-181310934D01*
X120105583Y-181105000D01*
X120085300Y-180899066D01*
X120025232Y-180701046D01*
X119973500Y-180604264D01*
X119927685Y-180518549D01*
X119927684Y-180518548D01*
X119796411Y-180358590D01*
X119796409Y-180358588D01*
X119636451Y-180227315D01*
X119636450Y-180227314D01*
X119453950Y-180129766D01*
X119255933Y-180069699D01*
X119050000Y-180049417D01*
X118844066Y-180069699D01*
X118646049Y-180129766D01*
X118463549Y-180227314D01*
X118463548Y-180227315D01*
X118303590Y-180358588D01*
X118303588Y-180358590D01*
X118172315Y-180518548D01*
X118172314Y-180518549D01*
X118074766Y-180701049D01*
X118014699Y-180899066D01*
X117994417Y-181105000D01*
X117565583Y-181105000D01*
X117545300Y-180899066D01*
X117485232Y-180701046D01*
X117433500Y-180604264D01*
X117387685Y-180518549D01*
X117387684Y-180518548D01*
X117256411Y-180358590D01*
X117256409Y-180358588D01*
X117096451Y-180227315D01*
X117096450Y-180227314D01*
X116913950Y-180129766D01*
X116715933Y-180069699D01*
X116510000Y-180049417D01*
X116304066Y-180069699D01*
X116106049Y-180129766D01*
X115923549Y-180227314D01*
X115923548Y-180227315D01*
X115763590Y-180358588D01*
X115763588Y-180358590D01*
X115632315Y-180518548D01*
X115632314Y-180518549D01*
X115534766Y-180701049D01*
X115474699Y-180899066D01*
X115454417Y-181105000D01*
X87925500Y-181105000D01*
X87925500Y-178565000D01*
X115454417Y-178565000D01*
X115474699Y-178770933D01*
X115534766Y-178968950D01*
X115632314Y-179151450D01*
X115632315Y-179151451D01*
X115763588Y-179311409D01*
X115763590Y-179311411D01*
X115923548Y-179442684D01*
X115923549Y-179442685D01*
X116009264Y-179488500D01*
X116106046Y-179540232D01*
X116304066Y-179600300D01*
X116510000Y-179620583D01*
X116715934Y-179600300D01*
X116913954Y-179540232D01*
X117096450Y-179442685D01*
X117256410Y-179311410D01*
X117387685Y-179151450D01*
X117485232Y-178968954D01*
X117545300Y-178770934D01*
X117565583Y-178565000D01*
X117994417Y-178565000D01*
X118014699Y-178770933D01*
X118074766Y-178968950D01*
X118172314Y-179151450D01*
X118172315Y-179151451D01*
X118303588Y-179311409D01*
X118303590Y-179311411D01*
X118463548Y-179442684D01*
X118463549Y-179442685D01*
X118549264Y-179488500D01*
X118646046Y-179540232D01*
X118844066Y-179600300D01*
X119050000Y-179620583D01*
X119255934Y-179600300D01*
X119453954Y-179540232D01*
X119636450Y-179442685D01*
X119796410Y-179311410D01*
X119927685Y-179151450D01*
X120025232Y-178968954D01*
X120085300Y-178770934D01*
X120105583Y-178565000D01*
X120085300Y-178359066D01*
X120025232Y-178161046D01*
X119973500Y-178064264D01*
X119927685Y-177978549D01*
X119927684Y-177978548D01*
X119796411Y-177818590D01*
X119796409Y-177818588D01*
X119636451Y-177687315D01*
X119636450Y-177687314D01*
X119453950Y-177589766D01*
X119255933Y-177529699D01*
X119050000Y-177509417D01*
X118844066Y-177529699D01*
X118646049Y-177589766D01*
X118463549Y-177687314D01*
X118463548Y-177687315D01*
X118303590Y-177818588D01*
X118303588Y-177818590D01*
X118172315Y-177978548D01*
X118172314Y-177978549D01*
X118074766Y-178161049D01*
X118014699Y-178359066D01*
X117994417Y-178565000D01*
X117565583Y-178565000D01*
X117545300Y-178359066D01*
X117485232Y-178161046D01*
X117433500Y-178064264D01*
X117387685Y-177978549D01*
X117387684Y-177978548D01*
X117256411Y-177818590D01*
X117256409Y-177818588D01*
X117096451Y-177687315D01*
X117096450Y-177687314D01*
X116913950Y-177589766D01*
X116715933Y-177529699D01*
X116510000Y-177509417D01*
X116304066Y-177529699D01*
X116106049Y-177589766D01*
X115923549Y-177687314D01*
X115923548Y-177687315D01*
X115763590Y-177818588D01*
X115763588Y-177818590D01*
X115632315Y-177978548D01*
X115632314Y-177978549D01*
X115534766Y-178161049D01*
X115474699Y-178359066D01*
X115454417Y-178565000D01*
X87925500Y-178565000D01*
X87925500Y-176625000D01*
X113644750Y-176625000D01*
X113663670Y-176768709D01*
X113719139Y-176902625D01*
X113807379Y-177017621D01*
X113922375Y-177105861D01*
X114056291Y-177161330D01*
X114200000Y-177180250D01*
X114343709Y-177161330D01*
X114477625Y-177105861D01*
X114592621Y-177017621D01*
X114680861Y-176902625D01*
X114736330Y-176768709D01*
X114755250Y-176625000D01*
X114736330Y-176481291D01*
X114680861Y-176347375D01*
X114592621Y-176232379D01*
X114477625Y-176144139D01*
X114343709Y-176088670D01*
X114343706Y-176088669D01*
X114343704Y-176088669D01*
X114200000Y-176069750D01*
X114056295Y-176088669D01*
X114056291Y-176088670D01*
X113922375Y-176144139D01*
X113922371Y-176144141D01*
X113807379Y-176232379D01*
X113719141Y-176347371D01*
X113719139Y-176347375D01*
X113663670Y-176481291D01*
X113644750Y-176625000D01*
X87925500Y-176625000D01*
X87925500Y-176025000D01*
X115454417Y-176025000D01*
X115474699Y-176230933D01*
X115534766Y-176428950D01*
X115632314Y-176611450D01*
X115632315Y-176611451D01*
X115763588Y-176771409D01*
X115763590Y-176771411D01*
X115923548Y-176902684D01*
X115923549Y-176902685D01*
X116009264Y-176948500D01*
X116106046Y-177000232D01*
X116106048Y-177000232D01*
X116106049Y-177000233D01*
X116304066Y-177060300D01*
X116510000Y-177080583D01*
X116715934Y-177060300D01*
X116913954Y-177000232D01*
X117096450Y-176902685D01*
X117256410Y-176771410D01*
X117258628Y-176768708D01*
X117387684Y-176611451D01*
X117387685Y-176611450D01*
X117485232Y-176428954D01*
X117545300Y-176230934D01*
X117565583Y-176025000D01*
X117994417Y-176025000D01*
X118014699Y-176230933D01*
X118074766Y-176428950D01*
X118172314Y-176611450D01*
X118172315Y-176611451D01*
X118303588Y-176771409D01*
X118303590Y-176771411D01*
X118463548Y-176902684D01*
X118463549Y-176902685D01*
X118549264Y-176948500D01*
X118646046Y-177000232D01*
X118646048Y-177000232D01*
X118646049Y-177000233D01*
X118844066Y-177060300D01*
X119050000Y-177080583D01*
X119255934Y-177060300D01*
X119453954Y-177000232D01*
X119636450Y-176902685D01*
X119796410Y-176771410D01*
X119798628Y-176768708D01*
X119927684Y-176611451D01*
X119927685Y-176611450D01*
X120025232Y-176428954D01*
X120085300Y-176230934D01*
X120105583Y-176025000D01*
X120085300Y-175819066D01*
X120025232Y-175621046D01*
X119973500Y-175524264D01*
X119927685Y-175438549D01*
X119927684Y-175438548D01*
X119796411Y-175278590D01*
X119796409Y-175278588D01*
X119636451Y-175147315D01*
X119636450Y-175147314D01*
X119453950Y-175049766D01*
X119255933Y-174989699D01*
X119050000Y-174969417D01*
X118844066Y-174989699D01*
X118646049Y-175049766D01*
X118463549Y-175147314D01*
X118463548Y-175147315D01*
X118303590Y-175278588D01*
X118303588Y-175278590D01*
X118172315Y-175438548D01*
X118172314Y-175438549D01*
X118074766Y-175621049D01*
X118014699Y-175819066D01*
X117994417Y-176025000D01*
X117565583Y-176025000D01*
X117545300Y-175819066D01*
X117485232Y-175621046D01*
X117433500Y-175524264D01*
X117387685Y-175438549D01*
X117387684Y-175438548D01*
X117256411Y-175278590D01*
X117256409Y-175278588D01*
X117096451Y-175147315D01*
X117096450Y-175147314D01*
X116913950Y-175049766D01*
X116715933Y-174989699D01*
X116510000Y-174969417D01*
X116304066Y-174989699D01*
X116106049Y-175049766D01*
X115923549Y-175147314D01*
X115923548Y-175147315D01*
X115763590Y-175278588D01*
X115763588Y-175278590D01*
X115632315Y-175438548D01*
X115632314Y-175438549D01*
X115534766Y-175621049D01*
X115474699Y-175819066D01*
X115454417Y-176025000D01*
X87925500Y-176025000D01*
X87925500Y-173485000D01*
X115454417Y-173485000D01*
X115474699Y-173690933D01*
X115534766Y-173888950D01*
X115632314Y-174071450D01*
X115632315Y-174071451D01*
X115763588Y-174231409D01*
X115763590Y-174231411D01*
X115923548Y-174362684D01*
X115923549Y-174362685D01*
X116009264Y-174408500D01*
X116106046Y-174460232D01*
X116304066Y-174520300D01*
X116510000Y-174540583D01*
X116715934Y-174520300D01*
X116913954Y-174460232D01*
X117096450Y-174362685D01*
X117256410Y-174231410D01*
X117387685Y-174071450D01*
X117485232Y-173888954D01*
X117545300Y-173690934D01*
X117565583Y-173485000D01*
X117994417Y-173485000D01*
X118014699Y-173690933D01*
X118074766Y-173888950D01*
X118172314Y-174071450D01*
X118172315Y-174071451D01*
X118303588Y-174231409D01*
X118303590Y-174231411D01*
X118463548Y-174362684D01*
X118463549Y-174362685D01*
X118549264Y-174408500D01*
X118646046Y-174460232D01*
X118844066Y-174520300D01*
X119050000Y-174540583D01*
X119255934Y-174520300D01*
X119453954Y-174460232D01*
X119636450Y-174362685D01*
X119796410Y-174231410D01*
X119927685Y-174071450D01*
X120025232Y-173888954D01*
X120085300Y-173690934D01*
X120105583Y-173485000D01*
X120085300Y-173279066D01*
X120025232Y-173081046D01*
X119973500Y-172984264D01*
X119927685Y-172898549D01*
X119927684Y-172898548D01*
X119796411Y-172738590D01*
X119796409Y-172738588D01*
X119636451Y-172607315D01*
X119636450Y-172607314D01*
X119453950Y-172509766D01*
X119255933Y-172449699D01*
X119050000Y-172429417D01*
X118844066Y-172449699D01*
X118646049Y-172509766D01*
X118463549Y-172607314D01*
X118463548Y-172607315D01*
X118303590Y-172738588D01*
X118303588Y-172738590D01*
X118172315Y-172898548D01*
X118172314Y-172898549D01*
X118074766Y-173081049D01*
X118014699Y-173279066D01*
X117994417Y-173485000D01*
X117565583Y-173485000D01*
X117545300Y-173279066D01*
X117485232Y-173081046D01*
X117433500Y-172984264D01*
X117387685Y-172898549D01*
X117387684Y-172898548D01*
X117256411Y-172738590D01*
X117256409Y-172738588D01*
X117096451Y-172607315D01*
X117096450Y-172607314D01*
X116913950Y-172509766D01*
X116715933Y-172449699D01*
X116510000Y-172429417D01*
X116304066Y-172449699D01*
X116106049Y-172509766D01*
X115923549Y-172607314D01*
X115923548Y-172607315D01*
X115763590Y-172738588D01*
X115763588Y-172738590D01*
X115632315Y-172898548D01*
X115632314Y-172898549D01*
X115534766Y-173081049D01*
X115474699Y-173279066D01*
X115454417Y-173485000D01*
X87925500Y-173485000D01*
X87925500Y-170275000D01*
X105644750Y-170275000D01*
X105655749Y-170358549D01*
X105663670Y-170418709D01*
X105719139Y-170552625D01*
X105807379Y-170667621D01*
X105922375Y-170755861D01*
X105952119Y-170768181D01*
X105985403Y-170801465D01*
X105985403Y-170848535D01*
X105952119Y-170881819D01*
X105922375Y-170894139D01*
X105922371Y-170894141D01*
X105807379Y-170982379D01*
X105719141Y-171097371D01*
X105719139Y-171097375D01*
X105663670Y-171231291D01*
X105644750Y-171375000D01*
X105663670Y-171518709D01*
X105719139Y-171652625D01*
X105807379Y-171767621D01*
X105922375Y-171855861D01*
X106056291Y-171911330D01*
X106200000Y-171930250D01*
X106343709Y-171911330D01*
X106477625Y-171855861D01*
X106562562Y-171790685D01*
X106608027Y-171778503D01*
X106637436Y-171790684D01*
X106722375Y-171855861D01*
X106856291Y-171911330D01*
X107000000Y-171930250D01*
X107143709Y-171911330D01*
X107277625Y-171855861D01*
X107362562Y-171790685D01*
X107408027Y-171778503D01*
X107437436Y-171790684D01*
X107522375Y-171855861D01*
X107656291Y-171911330D01*
X107800000Y-171930250D01*
X107943709Y-171911330D01*
X108077625Y-171855861D01*
X108162562Y-171790685D01*
X108208027Y-171778503D01*
X108237436Y-171790684D01*
X108322375Y-171855861D01*
X108456291Y-171911330D01*
X108600000Y-171930250D01*
X108743709Y-171911330D01*
X108877625Y-171855861D01*
X108992621Y-171767621D01*
X109080861Y-171652625D01*
X109136330Y-171518709D01*
X109155250Y-171375000D01*
X109136330Y-171231291D01*
X109080861Y-171097375D01*
X108992621Y-170982379D01*
X108943908Y-170945000D01*
X115454417Y-170945000D01*
X115474699Y-171150933D01*
X115534766Y-171348950D01*
X115632314Y-171531450D01*
X115632315Y-171531451D01*
X115763588Y-171691409D01*
X115763590Y-171691411D01*
X115923548Y-171822684D01*
X115923549Y-171822685D01*
X115985617Y-171855861D01*
X116106046Y-171920232D01*
X116304066Y-171980300D01*
X116510000Y-172000583D01*
X116715934Y-171980300D01*
X116913954Y-171920232D01*
X117096450Y-171822685D01*
X117256410Y-171691410D01*
X117387685Y-171531450D01*
X117485232Y-171348954D01*
X117545300Y-171150934D01*
X117565583Y-170945000D01*
X117994417Y-170945000D01*
X118014699Y-171150933D01*
X118074766Y-171348950D01*
X118172314Y-171531450D01*
X118172315Y-171531451D01*
X118303588Y-171691409D01*
X118303590Y-171691411D01*
X118463548Y-171822684D01*
X118463549Y-171822685D01*
X118525617Y-171855861D01*
X118646046Y-171920232D01*
X118844066Y-171980300D01*
X119050000Y-172000583D01*
X119255934Y-171980300D01*
X119453954Y-171920232D01*
X119636450Y-171822685D01*
X119796410Y-171691410D01*
X119927685Y-171531450D01*
X120025232Y-171348954D01*
X120085300Y-171150934D01*
X120105583Y-170945000D01*
X120085300Y-170739066D01*
X120025232Y-170541046D01*
X119959841Y-170418709D01*
X119927685Y-170358549D01*
X119927684Y-170358548D01*
X119796411Y-170198590D01*
X119796409Y-170198588D01*
X119636451Y-170067315D01*
X119636450Y-170067314D01*
X119453950Y-169969766D01*
X119255933Y-169909699D01*
X119050000Y-169889417D01*
X118844066Y-169909699D01*
X118646049Y-169969766D01*
X118463549Y-170067314D01*
X118463548Y-170067315D01*
X118303590Y-170198588D01*
X118303588Y-170198590D01*
X118172315Y-170358548D01*
X118172314Y-170358549D01*
X118074766Y-170541049D01*
X118014699Y-170739066D01*
X117994417Y-170945000D01*
X117565583Y-170945000D01*
X117545300Y-170739066D01*
X117485232Y-170541046D01*
X117419841Y-170418709D01*
X117387685Y-170358549D01*
X117387684Y-170358548D01*
X117256411Y-170198590D01*
X117256409Y-170198588D01*
X117096451Y-170067315D01*
X117096450Y-170067314D01*
X116913950Y-169969766D01*
X116715933Y-169909699D01*
X116510000Y-169889417D01*
X116304066Y-169909699D01*
X116106049Y-169969766D01*
X115923549Y-170067314D01*
X115923548Y-170067315D01*
X115763590Y-170198588D01*
X115763588Y-170198590D01*
X115632315Y-170358548D01*
X115632314Y-170358549D01*
X115534766Y-170541049D01*
X115474699Y-170739066D01*
X115454417Y-170945000D01*
X108943908Y-170945000D01*
X108877625Y-170894139D01*
X108743709Y-170838670D01*
X108743706Y-170838669D01*
X108743704Y-170838669D01*
X108600000Y-170819750D01*
X108456295Y-170838669D01*
X108456291Y-170838670D01*
X108322375Y-170894139D01*
X108322371Y-170894141D01*
X108237439Y-170959312D01*
X108191972Y-170971495D01*
X108162561Y-170959312D01*
X108077628Y-170894141D01*
X108077625Y-170894139D01*
X108047878Y-170881817D01*
X108014597Y-170848535D01*
X108014596Y-170801465D01*
X108047880Y-170768182D01*
X108047880Y-170768181D01*
X108077625Y-170755861D01*
X108192621Y-170667621D01*
X108280861Y-170552625D01*
X108336330Y-170418709D01*
X108355250Y-170275000D01*
X108336330Y-170131291D01*
X108280861Y-169997375D01*
X108192621Y-169882379D01*
X108077625Y-169794139D01*
X107943709Y-169738670D01*
X107943706Y-169738669D01*
X107943704Y-169738669D01*
X107800000Y-169719750D01*
X107656295Y-169738669D01*
X107656291Y-169738670D01*
X107522375Y-169794139D01*
X107522371Y-169794141D01*
X107437439Y-169859312D01*
X107391972Y-169871495D01*
X107362561Y-169859312D01*
X107277628Y-169794141D01*
X107277626Y-169794140D01*
X107277625Y-169794139D01*
X107143709Y-169738670D01*
X107143706Y-169738669D01*
X107143704Y-169738669D01*
X107000000Y-169719750D01*
X106856295Y-169738669D01*
X106856291Y-169738670D01*
X106722375Y-169794139D01*
X106722371Y-169794141D01*
X106637439Y-169859312D01*
X106591972Y-169871495D01*
X106562561Y-169859312D01*
X106477628Y-169794141D01*
X106477626Y-169794140D01*
X106477625Y-169794139D01*
X106343709Y-169738670D01*
X106343706Y-169738669D01*
X106343704Y-169738669D01*
X106200000Y-169719750D01*
X106056295Y-169738669D01*
X106056291Y-169738670D01*
X105922375Y-169794139D01*
X105922371Y-169794141D01*
X105807379Y-169882379D01*
X105719141Y-169997371D01*
X105719139Y-169997375D01*
X105663670Y-170131291D01*
X105663669Y-170131295D01*
X105644750Y-170275000D01*
X87925500Y-170275000D01*
X87925500Y-168405000D01*
X115454417Y-168405000D01*
X115474699Y-168610933D01*
X115534766Y-168808950D01*
X115632314Y-168991450D01*
X115632315Y-168991451D01*
X115763588Y-169151409D01*
X115763590Y-169151411D01*
X115923548Y-169282684D01*
X115923549Y-169282685D01*
X116009264Y-169328500D01*
X116106046Y-169380232D01*
X116304066Y-169440300D01*
X116510000Y-169460583D01*
X116715934Y-169440300D01*
X116913954Y-169380232D01*
X117096450Y-169282685D01*
X117256410Y-169151410D01*
X117387685Y-168991450D01*
X117485232Y-168808954D01*
X117545300Y-168610934D01*
X117565583Y-168405000D01*
X117994417Y-168405000D01*
X118014699Y-168610933D01*
X118074766Y-168808950D01*
X118172314Y-168991450D01*
X118172315Y-168991451D01*
X118303588Y-169151409D01*
X118303590Y-169151411D01*
X118463548Y-169282684D01*
X118463549Y-169282685D01*
X118549264Y-169328500D01*
X118646046Y-169380232D01*
X118844066Y-169440300D01*
X119050000Y-169460583D01*
X119255934Y-169440300D01*
X119453954Y-169380232D01*
X119636450Y-169282685D01*
X119796410Y-169151410D01*
X119927685Y-168991450D01*
X120025232Y-168808954D01*
X120085300Y-168610934D01*
X120105583Y-168405000D01*
X120085300Y-168199066D01*
X120025232Y-168001046D01*
X119973500Y-167904264D01*
X119927685Y-167818549D01*
X119927684Y-167818548D01*
X119796411Y-167658590D01*
X119796409Y-167658588D01*
X119636451Y-167527315D01*
X119636450Y-167527314D01*
X119453950Y-167429766D01*
X119255933Y-167369699D01*
X119050000Y-167349417D01*
X118844066Y-167369699D01*
X118646049Y-167429766D01*
X118463549Y-167527314D01*
X118463548Y-167527315D01*
X118303590Y-167658588D01*
X118303588Y-167658590D01*
X118172315Y-167818548D01*
X118172314Y-167818549D01*
X118074766Y-168001049D01*
X118014699Y-168199066D01*
X117994417Y-168405000D01*
X117565583Y-168405000D01*
X117545300Y-168199066D01*
X117485232Y-168001046D01*
X117433500Y-167904264D01*
X117387685Y-167818549D01*
X117387684Y-167818548D01*
X117256411Y-167658590D01*
X117256409Y-167658588D01*
X117096451Y-167527315D01*
X117096450Y-167527314D01*
X116913950Y-167429766D01*
X116715933Y-167369699D01*
X116510000Y-167349417D01*
X116304066Y-167369699D01*
X116106049Y-167429766D01*
X115923549Y-167527314D01*
X115923548Y-167527315D01*
X115763590Y-167658588D01*
X115763588Y-167658590D01*
X115632315Y-167818548D01*
X115632314Y-167818549D01*
X115534766Y-168001049D01*
X115474699Y-168199066D01*
X115454417Y-168405000D01*
X87925500Y-168405000D01*
X87925500Y-165865000D01*
X115454417Y-165865000D01*
X115474699Y-166070933D01*
X115534766Y-166268950D01*
X115632314Y-166451450D01*
X115632315Y-166451451D01*
X115763588Y-166611409D01*
X115763590Y-166611411D01*
X115923548Y-166742684D01*
X115923549Y-166742685D01*
X116009264Y-166788500D01*
X116106046Y-166840232D01*
X116304066Y-166900300D01*
X116510000Y-166920583D01*
X116715934Y-166900300D01*
X116913954Y-166840232D01*
X117096450Y-166742685D01*
X117256410Y-166611410D01*
X117387685Y-166451450D01*
X117485232Y-166268954D01*
X117545300Y-166070934D01*
X117565583Y-165865000D01*
X117994417Y-165865000D01*
X118014699Y-166070933D01*
X118074766Y-166268950D01*
X118172314Y-166451450D01*
X118172315Y-166451451D01*
X118303588Y-166611409D01*
X118303590Y-166611411D01*
X118463548Y-166742684D01*
X118463549Y-166742685D01*
X118549264Y-166788500D01*
X118646046Y-166840232D01*
X118844066Y-166900300D01*
X119050000Y-166920583D01*
X119255934Y-166900300D01*
X119453954Y-166840232D01*
X119636450Y-166742685D01*
X119796410Y-166611410D01*
X119927685Y-166451450D01*
X120025232Y-166268954D01*
X120085300Y-166070934D01*
X120105583Y-165865000D01*
X120085300Y-165659066D01*
X120061391Y-165580249D01*
X120025233Y-165461049D01*
X120025232Y-165461048D01*
X120025232Y-165461046D01*
X119940555Y-165302628D01*
X119927685Y-165278549D01*
X119927684Y-165278548D01*
X119796411Y-165118590D01*
X119796409Y-165118588D01*
X119636451Y-164987315D01*
X119636450Y-164987314D01*
X119453950Y-164889766D01*
X119255933Y-164829699D01*
X119050000Y-164809417D01*
X118844066Y-164829699D01*
X118646049Y-164889766D01*
X118463549Y-164987314D01*
X118463548Y-164987315D01*
X118303590Y-165118588D01*
X118303588Y-165118590D01*
X118172315Y-165278548D01*
X118172314Y-165278549D01*
X118074766Y-165461049D01*
X118014699Y-165659066D01*
X117994417Y-165865000D01*
X117565583Y-165865000D01*
X117545300Y-165659066D01*
X117521391Y-165580249D01*
X117485233Y-165461049D01*
X117485232Y-165461048D01*
X117485232Y-165461046D01*
X117400555Y-165302628D01*
X117387685Y-165278549D01*
X117387684Y-165278548D01*
X117256411Y-165118590D01*
X117256409Y-165118588D01*
X117096451Y-164987315D01*
X117096450Y-164987314D01*
X116913950Y-164889766D01*
X116715933Y-164829699D01*
X116510000Y-164809417D01*
X116304066Y-164829699D01*
X116106049Y-164889766D01*
X115923549Y-164987314D01*
X115923548Y-164987315D01*
X115763590Y-165118588D01*
X115763588Y-165118590D01*
X115632315Y-165278548D01*
X115632314Y-165278549D01*
X115534766Y-165461049D01*
X115474699Y-165659066D01*
X115454417Y-165865000D01*
X87925500Y-165865000D01*
X87925500Y-164575000D01*
X100444750Y-164575000D01*
X100463670Y-164718709D01*
X100519139Y-164852625D01*
X100607379Y-164967621D01*
X100722375Y-165055861D01*
X100856291Y-165111330D01*
X101000000Y-165130250D01*
X101143709Y-165111330D01*
X101277625Y-165055861D01*
X101317844Y-165025000D01*
X105644750Y-165025000D01*
X105658606Y-165130250D01*
X105663670Y-165168709D01*
X105719139Y-165302625D01*
X105807379Y-165417621D01*
X105922375Y-165505861D01*
X106056291Y-165561330D01*
X106200000Y-165580250D01*
X106343709Y-165561330D01*
X106477625Y-165505861D01*
X106592621Y-165417621D01*
X106680861Y-165302625D01*
X106736330Y-165168709D01*
X106755250Y-165025000D01*
X106736330Y-164881291D01*
X106680861Y-164747375D01*
X106592621Y-164632379D01*
X106477625Y-164544139D01*
X106343709Y-164488670D01*
X106343706Y-164488669D01*
X106343704Y-164488669D01*
X106200000Y-164469750D01*
X106056295Y-164488669D01*
X106056291Y-164488670D01*
X105922375Y-164544139D01*
X105922371Y-164544141D01*
X105807379Y-164632379D01*
X105719141Y-164747371D01*
X105719139Y-164747375D01*
X105663670Y-164881291D01*
X105663669Y-164881295D01*
X105644750Y-165025000D01*
X101317844Y-165025000D01*
X101392621Y-164967621D01*
X101480861Y-164852625D01*
X101536330Y-164718709D01*
X101555250Y-164575000D01*
X101536330Y-164431291D01*
X101480861Y-164297375D01*
X101392621Y-164182379D01*
X101277625Y-164094139D01*
X101143709Y-164038670D01*
X101143706Y-164038669D01*
X101143704Y-164038669D01*
X101000000Y-164019750D01*
X100856295Y-164038669D01*
X100856291Y-164038670D01*
X100722375Y-164094139D01*
X100722371Y-164094141D01*
X100607379Y-164182379D01*
X100519141Y-164297371D01*
X100519139Y-164297375D01*
X100463670Y-164431291D01*
X100463669Y-164431295D01*
X100448813Y-164544139D01*
X100444750Y-164575000D01*
X87925500Y-164575000D01*
X87925500Y-163325000D01*
X100494750Y-163325000D01*
X100513670Y-163468709D01*
X100569139Y-163602625D01*
X100657379Y-163717621D01*
X100772375Y-163805861D01*
X100906291Y-163861330D01*
X101050000Y-163880250D01*
X101193709Y-163861330D01*
X101327625Y-163805861D01*
X101442621Y-163717621D01*
X101530861Y-163602625D01*
X101586330Y-163468709D01*
X101605250Y-163325000D01*
X101586330Y-163181291D01*
X101530861Y-163047375D01*
X101442621Y-162932379D01*
X101327625Y-162844139D01*
X101193709Y-162788670D01*
X101193706Y-162788669D01*
X101193704Y-162788669D01*
X101050000Y-162769750D01*
X100906295Y-162788669D01*
X100906291Y-162788670D01*
X100772375Y-162844139D01*
X100772371Y-162844141D01*
X100657379Y-162932379D01*
X100569141Y-163047371D01*
X100569139Y-163047375D01*
X100513670Y-163181291D01*
X100494750Y-163325000D01*
X87925500Y-163325000D01*
X87925500Y-162625000D01*
X97609750Y-162625000D01*
X97621664Y-162715499D01*
X97628670Y-162768709D01*
X97684139Y-162902625D01*
X97772379Y-163017621D01*
X97887375Y-163105861D01*
X98021291Y-163161330D01*
X98165000Y-163180250D01*
X98308709Y-163161330D01*
X98442625Y-163105861D01*
X98557621Y-163017621D01*
X98645861Y-162902625D01*
X98701330Y-162768709D01*
X98720250Y-162625000D01*
X98701330Y-162481291D01*
X98645861Y-162347375D01*
X98557621Y-162232379D01*
X98442625Y-162144139D01*
X98308709Y-162088670D01*
X98308706Y-162088669D01*
X98308704Y-162088669D01*
X98165000Y-162069750D01*
X98021295Y-162088669D01*
X98021291Y-162088670D01*
X97887375Y-162144139D01*
X97887371Y-162144141D01*
X97772379Y-162232379D01*
X97684141Y-162347371D01*
X97684139Y-162347375D01*
X97628670Y-162481291D01*
X97628669Y-162481295D01*
X97609750Y-162625000D01*
X87925500Y-162625000D01*
X87925500Y-159495248D01*
X115199500Y-159495248D01*
X115199500Y-162534751D01*
X115211131Y-162593224D01*
X115211132Y-162593228D01*
X115211133Y-162593231D01*
X115255448Y-162659552D01*
X115321769Y-162703867D01*
X115380248Y-162715499D01*
X115380249Y-162715500D01*
X115380252Y-162715500D01*
X118419751Y-162715500D01*
X118419751Y-162715499D01*
X118478231Y-162703867D01*
X118544552Y-162659552D01*
X118588867Y-162593231D01*
X118600499Y-162534751D01*
X118600500Y-162534751D01*
X118600500Y-159495249D01*
X118600499Y-159495248D01*
X118588868Y-159436775D01*
X118588867Y-159436769D01*
X118544552Y-159370448D01*
X118478231Y-159326133D01*
X118478228Y-159326132D01*
X118478224Y-159326131D01*
X118419751Y-159314500D01*
X118419748Y-159314500D01*
X115380252Y-159314500D01*
X115380249Y-159314500D01*
X115321775Y-159326131D01*
X115321769Y-159326133D01*
X115255448Y-159370448D01*
X115211133Y-159436769D01*
X115211131Y-159436775D01*
X115199500Y-159495248D01*
X87925500Y-159495248D01*
X87925500Y-158325000D01*
X95244750Y-158325000D01*
X95259363Y-158436000D01*
X95263670Y-158468709D01*
X95319139Y-158602625D01*
X95407379Y-158717621D01*
X95522375Y-158805861D01*
X95656291Y-158861330D01*
X95800000Y-158880250D01*
X95943709Y-158861330D01*
X96077625Y-158805861D01*
X96192621Y-158717621D01*
X96280861Y-158602625D01*
X96336330Y-158468709D01*
X96355250Y-158325000D01*
X97044750Y-158325000D01*
X97059363Y-158436000D01*
X97063670Y-158468709D01*
X97119139Y-158602625D01*
X97207379Y-158717621D01*
X97322375Y-158805861D01*
X97456291Y-158861330D01*
X97600000Y-158880250D01*
X97743709Y-158861330D01*
X97877625Y-158805861D01*
X97992621Y-158717621D01*
X98080861Y-158602625D01*
X98092304Y-158574999D01*
X101594353Y-158574999D01*
X101594353Y-158575000D01*
X101614835Y-158717457D01*
X101614836Y-158717461D01*
X101674622Y-158848371D01*
X101674622Y-158848372D01*
X101674623Y-158848373D01*
X101768872Y-158957143D01*
X101889947Y-159034953D01*
X102028039Y-159075500D01*
X102171961Y-159075500D01*
X102310053Y-159034953D01*
X102431128Y-158957143D01*
X102452020Y-158933031D01*
X102494108Y-158911962D01*
X102538770Y-158926824D01*
X102544976Y-158933031D01*
X102565870Y-158957144D01*
X102568866Y-158960601D01*
X102689941Y-159038411D01*
X102828033Y-159078958D01*
X102971955Y-159078958D01*
X103110047Y-159038411D01*
X103231122Y-158960601D01*
X103325371Y-158851831D01*
X103385159Y-158720915D01*
X103405641Y-158578458D01*
X103385159Y-158436001D01*
X103383579Y-158432542D01*
X103325371Y-158305086D01*
X103325371Y-158305085D01*
X103231122Y-158196315D01*
X103231119Y-158196313D01*
X103231118Y-158196312D01*
X103110049Y-158118506D01*
X103110042Y-158118503D01*
X103021070Y-158092379D01*
X102971955Y-158077958D01*
X102828033Y-158077958D01*
X102689945Y-158118503D01*
X102689938Y-158118506D01*
X102568869Y-158196312D01*
X102568866Y-158196314D01*
X102547973Y-158220426D01*
X102505881Y-158241494D01*
X102461220Y-158226629D01*
X102455017Y-158220426D01*
X102449131Y-158213634D01*
X102431128Y-158192857D01*
X102431125Y-158192855D01*
X102431124Y-158192854D01*
X102310055Y-158115048D01*
X102310048Y-158115045D01*
X102221076Y-158088921D01*
X102171961Y-158074500D01*
X102028039Y-158074500D01*
X101889951Y-158115045D01*
X101889944Y-158115048D01*
X101768875Y-158192854D01*
X101768874Y-158192855D01*
X101768872Y-158192856D01*
X101768872Y-158192857D01*
X101765877Y-158196314D01*
X101674622Y-158301627D01*
X101674622Y-158301628D01*
X101614836Y-158432538D01*
X101614835Y-158432542D01*
X101594353Y-158574999D01*
X98092304Y-158574999D01*
X98136330Y-158468709D01*
X98155250Y-158325000D01*
X98136330Y-158181291D01*
X98080861Y-158047375D01*
X97992621Y-157932379D01*
X97877625Y-157844139D01*
X97743709Y-157788670D01*
X97743706Y-157788669D01*
X97743704Y-157788669D01*
X97600000Y-157769750D01*
X97456295Y-157788669D01*
X97456291Y-157788670D01*
X97322375Y-157844139D01*
X97322371Y-157844141D01*
X97207379Y-157932379D01*
X97119141Y-158047371D01*
X97119139Y-158047375D01*
X97063670Y-158181291D01*
X97063669Y-158181295D01*
X97044750Y-158325000D01*
X96355250Y-158325000D01*
X96336330Y-158181291D01*
X96280861Y-158047375D01*
X96192621Y-157932379D01*
X96077625Y-157844139D01*
X95943709Y-157788670D01*
X95943706Y-157788669D01*
X95943704Y-157788669D01*
X95800000Y-157769750D01*
X95656295Y-157788669D01*
X95656291Y-157788670D01*
X95522375Y-157844139D01*
X95522371Y-157844141D01*
X95407379Y-157932379D01*
X95319141Y-158047371D01*
X95319139Y-158047375D01*
X95263670Y-158181291D01*
X95263669Y-158181295D01*
X95244750Y-158325000D01*
X87925500Y-158325000D01*
X87925500Y-157425000D01*
X99794750Y-157425000D01*
X99813670Y-157568709D01*
X99869139Y-157702625D01*
X99957379Y-157817621D01*
X100072375Y-157905861D01*
X100206291Y-157961330D01*
X100350000Y-157980250D01*
X100493709Y-157961330D01*
X100627625Y-157905861D01*
X100712562Y-157840685D01*
X100758027Y-157828503D01*
X100787436Y-157840684D01*
X100872375Y-157905861D01*
X101006291Y-157961330D01*
X101150000Y-157980250D01*
X101293709Y-157961330D01*
X101427625Y-157905861D01*
X101542621Y-157817621D01*
X101630861Y-157702625D01*
X101686330Y-157568709D01*
X101705250Y-157425000D01*
X101686330Y-157281291D01*
X101630861Y-157147375D01*
X101542621Y-157032379D01*
X101427625Y-156944139D01*
X101293709Y-156888670D01*
X101293706Y-156888669D01*
X101293704Y-156888669D01*
X101150000Y-156869750D01*
X101006295Y-156888669D01*
X101006291Y-156888670D01*
X100872375Y-156944139D01*
X100872371Y-156944141D01*
X100787439Y-157009312D01*
X100741972Y-157021495D01*
X100712561Y-157009312D01*
X100627628Y-156944141D01*
X100627626Y-156944140D01*
X100627625Y-156944139D01*
X100493709Y-156888670D01*
X100493706Y-156888669D01*
X100493704Y-156888669D01*
X100350000Y-156869750D01*
X100206295Y-156888669D01*
X100206291Y-156888670D01*
X100072375Y-156944139D01*
X100072371Y-156944141D01*
X99957379Y-157032379D01*
X99869141Y-157147371D01*
X99869139Y-157147375D01*
X99813670Y-157281291D01*
X99794750Y-157425000D01*
X87925500Y-157425000D01*
X87925500Y-155934999D01*
X115194732Y-155934999D01*
X115194732Y-155935000D01*
X115213777Y-156189156D01*
X115213778Y-156189158D01*
X115270490Y-156437631D01*
X115270491Y-156437634D01*
X115270492Y-156437637D01*
X115363607Y-156674888D01*
X115491041Y-156895612D01*
X115649950Y-157094877D01*
X115836783Y-157268232D01*
X116047366Y-157411805D01*
X116276996Y-157522389D01*
X116520542Y-157597513D01*
X116772565Y-157635500D01*
X117027435Y-157635500D01*
X117279458Y-157597513D01*
X117523004Y-157522389D01*
X117752634Y-157411805D01*
X117963217Y-157268232D01*
X118150050Y-157094877D01*
X118308959Y-156895612D01*
X118436393Y-156674888D01*
X118529508Y-156437637D01*
X118586222Y-156189157D01*
X118605268Y-155935000D01*
X118586222Y-155680843D01*
X118529508Y-155432363D01*
X118436393Y-155195112D01*
X118308959Y-154974388D01*
X118150050Y-154775123D01*
X117963217Y-154601768D01*
X117752634Y-154458195D01*
X117523004Y-154347611D01*
X117279458Y-154272487D01*
X117279455Y-154272486D01*
X117027436Y-154234500D01*
X117027435Y-154234500D01*
X116772565Y-154234500D01*
X116772563Y-154234500D01*
X116520544Y-154272486D01*
X116409575Y-154306715D01*
X116276996Y-154347611D01*
X116276993Y-154347612D01*
X116276991Y-154347613D01*
X116047362Y-154458197D01*
X115940154Y-154531291D01*
X115836783Y-154601768D01*
X115836781Y-154601770D01*
X115836779Y-154601771D01*
X115649949Y-154775124D01*
X115491040Y-154974389D01*
X115363606Y-155195113D01*
X115270490Y-155432368D01*
X115213778Y-155680841D01*
X115213777Y-155680843D01*
X115194732Y-155934999D01*
X87925500Y-155934999D01*
X87925500Y-155125000D01*
X99794750Y-155125000D01*
X99808606Y-155230250D01*
X99813670Y-155268709D01*
X99869139Y-155402625D01*
X99957379Y-155517621D01*
X100072375Y-155605861D01*
X100206291Y-155661330D01*
X100350000Y-155680250D01*
X100493709Y-155661330D01*
X100627625Y-155605861D01*
X100712562Y-155540685D01*
X100758027Y-155528503D01*
X100787436Y-155540684D01*
X100872375Y-155605861D01*
X101006291Y-155661330D01*
X101150000Y-155680250D01*
X101293709Y-155661330D01*
X101427625Y-155605861D01*
X101542621Y-155517621D01*
X101630861Y-155402625D01*
X101686330Y-155268709D01*
X101705250Y-155125000D01*
X101686330Y-154981291D01*
X101630861Y-154847375D01*
X101542621Y-154732379D01*
X101467844Y-154675000D01*
X102844750Y-154675000D01*
X102857931Y-154775123D01*
X102863670Y-154818709D01*
X102919139Y-154952625D01*
X103007379Y-155067621D01*
X103122375Y-155155861D01*
X103256291Y-155211330D01*
X103400000Y-155230250D01*
X103543709Y-155211330D01*
X103677625Y-155155861D01*
X103792621Y-155067621D01*
X103880861Y-154952625D01*
X103936330Y-154818709D01*
X103955250Y-154675000D01*
X105144750Y-154675000D01*
X105157931Y-154775123D01*
X105163670Y-154818709D01*
X105219139Y-154952625D01*
X105307379Y-155067621D01*
X105422375Y-155155861D01*
X105556291Y-155211330D01*
X105700000Y-155230250D01*
X105843709Y-155211330D01*
X105977625Y-155155861D01*
X106092621Y-155067621D01*
X106180861Y-154952625D01*
X106236330Y-154818709D01*
X106255250Y-154675000D01*
X106236330Y-154531291D01*
X106180861Y-154397375D01*
X106092621Y-154282379D01*
X105977625Y-154194139D01*
X105843709Y-154138670D01*
X105843706Y-154138669D01*
X105843704Y-154138669D01*
X105700000Y-154119750D01*
X105556295Y-154138669D01*
X105556291Y-154138670D01*
X105422375Y-154194139D01*
X105422371Y-154194141D01*
X105307379Y-154282379D01*
X105219141Y-154397371D01*
X105219139Y-154397375D01*
X105163670Y-154531291D01*
X105163669Y-154531295D01*
X105144750Y-154675000D01*
X103955250Y-154675000D01*
X103936330Y-154531291D01*
X103880861Y-154397375D01*
X103792621Y-154282379D01*
X103677625Y-154194139D01*
X103543709Y-154138670D01*
X103543706Y-154138669D01*
X103543704Y-154138669D01*
X103400000Y-154119750D01*
X103256295Y-154138669D01*
X103256291Y-154138670D01*
X103122375Y-154194139D01*
X103122371Y-154194141D01*
X103007379Y-154282379D01*
X102919141Y-154397371D01*
X102919139Y-154397375D01*
X102863670Y-154531291D01*
X102863669Y-154531295D01*
X102844750Y-154675000D01*
X101467844Y-154675000D01*
X101427625Y-154644139D01*
X101293709Y-154588670D01*
X101293706Y-154588669D01*
X101293704Y-154588669D01*
X101150000Y-154569750D01*
X101006295Y-154588669D01*
X101006291Y-154588670D01*
X100872375Y-154644139D01*
X100872371Y-154644141D01*
X100787439Y-154709312D01*
X100741972Y-154721495D01*
X100712561Y-154709312D01*
X100627628Y-154644141D01*
X100627626Y-154644140D01*
X100627625Y-154644139D01*
X100493709Y-154588670D01*
X100493706Y-154588669D01*
X100493704Y-154588669D01*
X100350000Y-154569750D01*
X100206295Y-154588669D01*
X100206291Y-154588670D01*
X100072375Y-154644139D01*
X100072371Y-154644141D01*
X99957379Y-154732379D01*
X99869141Y-154847371D01*
X99869139Y-154847375D01*
X99813670Y-154981291D01*
X99813669Y-154981295D01*
X99794750Y-155125000D01*
X87925500Y-155125000D01*
X87925500Y-152878907D01*
X94794749Y-152878907D01*
X94813669Y-153022616D01*
X94869138Y-153156532D01*
X94957378Y-153271528D01*
X95072374Y-153359768D01*
X95206290Y-153415237D01*
X95349999Y-153434157D01*
X95493708Y-153415237D01*
X95627624Y-153359768D01*
X95742620Y-153271528D01*
X95830860Y-153156532D01*
X95886329Y-153022616D01*
X95905249Y-152878907D01*
X95886329Y-152735198D01*
X95852653Y-152653895D01*
X95852654Y-152606827D01*
X95885937Y-152573543D01*
X95917498Y-152569388D01*
X96000000Y-152580250D01*
X96143709Y-152561330D01*
X96277625Y-152505861D01*
X96392621Y-152417621D01*
X96402328Y-152404970D01*
X96443091Y-152381435D01*
X96488557Y-152393617D01*
X96499910Y-152404970D01*
X96516999Y-152427241D01*
X96593947Y-152486286D01*
X96631995Y-152515481D01*
X96765911Y-152570950D01*
X96909620Y-152589870D01*
X97053329Y-152570950D01*
X97187245Y-152515481D01*
X97302241Y-152427241D01*
X97390481Y-152312245D01*
X97445950Y-152178329D01*
X97464870Y-152034620D01*
X97447308Y-151901229D01*
X99379500Y-151901229D01*
X99379500Y-153068770D01*
X99412182Y-153233076D01*
X99412187Y-153233092D01*
X99476294Y-153387857D01*
X99476299Y-153387867D01*
X99568747Y-153526224D01*
X99569374Y-153527162D01*
X99687838Y-153645626D01*
X99757018Y-153691851D01*
X99827132Y-153738700D01*
X99827134Y-153738701D01*
X99827137Y-153738703D01*
X99827142Y-153738705D01*
X99981907Y-153802812D01*
X99981912Y-153802813D01*
X99981918Y-153802816D01*
X100146229Y-153835499D01*
X100146230Y-153835500D01*
X100146233Y-153835500D01*
X100313770Y-153835500D01*
X100313770Y-153835499D01*
X100478082Y-153802816D01*
X100632863Y-153738703D01*
X100772162Y-153645626D01*
X100890626Y-153527162D01*
X100983703Y-153387863D01*
X101047816Y-153233082D01*
X101080499Y-153068770D01*
X101080500Y-153068770D01*
X101080500Y-152158949D01*
X101098513Y-152115462D01*
X101142000Y-152097449D01*
X101172747Y-152105687D01*
X101260763Y-152156503D01*
X101260767Y-152156504D01*
X101368980Y-152185500D01*
X101368982Y-152185500D01*
X101731019Y-152185500D01*
X101785652Y-152170861D01*
X101839237Y-152156503D01*
X101936263Y-152100485D01*
X102015485Y-152021263D01*
X102071503Y-151924237D01*
X102099779Y-151818709D01*
X102100500Y-151816020D01*
X102100500Y-151703979D01*
X102092735Y-151675000D01*
X102244750Y-151675000D01*
X102263315Y-151816018D01*
X102263670Y-151818709D01*
X102307381Y-151924237D01*
X102319139Y-151952624D01*
X102319141Y-151952628D01*
X102335588Y-151974062D01*
X102407379Y-152067621D01*
X102522375Y-152155861D01*
X102656291Y-152211330D01*
X102800000Y-152230250D01*
X102943709Y-152211330D01*
X103077625Y-152155861D01*
X103192621Y-152067621D01*
X103280861Y-151952625D01*
X103336330Y-151818709D01*
X103353275Y-151690000D01*
X105244750Y-151690000D01*
X105261694Y-151818704D01*
X105263670Y-151833709D01*
X105312928Y-151952628D01*
X105319139Y-151967624D01*
X105319141Y-151967628D01*
X105324078Y-151974062D01*
X105407379Y-152082621D01*
X105522375Y-152170861D01*
X105656291Y-152226330D01*
X105800000Y-152245250D01*
X105943709Y-152226330D01*
X106077625Y-152170861D01*
X106192621Y-152082621D01*
X106280861Y-151967625D01*
X106336330Y-151833709D01*
X106353410Y-151703979D01*
X107124500Y-151703979D01*
X107124500Y-151816020D01*
X107153495Y-151924232D01*
X107153496Y-151924234D01*
X107153497Y-151924237D01*
X107209515Y-152021263D01*
X107288737Y-152100485D01*
X107385763Y-152156503D01*
X107385767Y-152156504D01*
X107493980Y-152185500D01*
X107493982Y-152185500D01*
X107606019Y-152185500D01*
X107660652Y-152170861D01*
X107714237Y-152156503D01*
X107811263Y-152100485D01*
X107890485Y-152021263D01*
X107904740Y-151996571D01*
X107942082Y-151967919D01*
X107988750Y-151974062D01*
X108017404Y-152011405D01*
X108019500Y-152027323D01*
X108019500Y-153068770D01*
X108052182Y-153233076D01*
X108052187Y-153233092D01*
X108116294Y-153387857D01*
X108116299Y-153387867D01*
X108208747Y-153526224D01*
X108209374Y-153527162D01*
X108327838Y-153645626D01*
X108397018Y-153691851D01*
X108467132Y-153738700D01*
X108467134Y-153738701D01*
X108467137Y-153738703D01*
X108467142Y-153738705D01*
X108621907Y-153802812D01*
X108621912Y-153802813D01*
X108621918Y-153802816D01*
X108786229Y-153835499D01*
X108786230Y-153835500D01*
X108786233Y-153835500D01*
X108953770Y-153835500D01*
X108953770Y-153835499D01*
X109118082Y-153802816D01*
X109272863Y-153738703D01*
X109412162Y-153645626D01*
X109530626Y-153527162D01*
X109623703Y-153387863D01*
X109687816Y-153233082D01*
X109720499Y-153068770D01*
X109720500Y-153068770D01*
X109720500Y-151901230D01*
X109720499Y-151901229D01*
X109718447Y-151890915D01*
X109687816Y-151736918D01*
X109687813Y-151736912D01*
X109687812Y-151736907D01*
X109623705Y-151582142D01*
X109623700Y-151582132D01*
X109530627Y-151442840D01*
X109530626Y-151442838D01*
X109412161Y-151324373D01*
X109412159Y-151324372D01*
X109272867Y-151231299D01*
X109272857Y-151231294D01*
X109118092Y-151167187D01*
X109118076Y-151167182D01*
X108953770Y-151134500D01*
X108953767Y-151134500D01*
X108786233Y-151134500D01*
X108786230Y-151134500D01*
X108621923Y-151167182D01*
X108621907Y-151167187D01*
X108467142Y-151231294D01*
X108467132Y-151231299D01*
X108327840Y-151324372D01*
X108327838Y-151324373D01*
X108209373Y-151442838D01*
X108209372Y-151442840D01*
X108116299Y-151582132D01*
X108116296Y-151582138D01*
X108080311Y-151669012D01*
X108047027Y-151702295D01*
X107999957Y-151702294D01*
X107966674Y-151669010D01*
X107964089Y-151661393D01*
X107946505Y-151595769D01*
X107946504Y-151595767D01*
X107946503Y-151595763D01*
X107890485Y-151498737D01*
X107811263Y-151419515D01*
X107714237Y-151363497D01*
X107714234Y-151363496D01*
X107714232Y-151363495D01*
X107606020Y-151334500D01*
X107606018Y-151334500D01*
X107493982Y-151334500D01*
X107493980Y-151334500D01*
X107385767Y-151363495D01*
X107385763Y-151363497D01*
X107288738Y-151419514D01*
X107288733Y-151419518D01*
X107209518Y-151498733D01*
X107209514Y-151498738D01*
X107153497Y-151595763D01*
X107153495Y-151595767D01*
X107124500Y-151703979D01*
X106353410Y-151703979D01*
X106355250Y-151690000D01*
X106336330Y-151546291D01*
X106280861Y-151412375D01*
X106192621Y-151297379D01*
X106077625Y-151209139D01*
X105943709Y-151153670D01*
X105943706Y-151153669D01*
X105943704Y-151153669D01*
X105800000Y-151134750D01*
X105656295Y-151153669D01*
X105656291Y-151153670D01*
X105522375Y-151209139D01*
X105522371Y-151209141D01*
X105407379Y-151297379D01*
X105319141Y-151412371D01*
X105319139Y-151412375D01*
X105263670Y-151546291D01*
X105263669Y-151546295D01*
X105244750Y-151690000D01*
X103353275Y-151690000D01*
X103355250Y-151675000D01*
X103336330Y-151531291D01*
X103280861Y-151397375D01*
X103192621Y-151282379D01*
X103077625Y-151194139D01*
X102943709Y-151138670D01*
X102943706Y-151138669D01*
X102943704Y-151138669D01*
X102800000Y-151119750D01*
X102656295Y-151138669D01*
X102656291Y-151138670D01*
X102522375Y-151194139D01*
X102522371Y-151194141D01*
X102407379Y-151282379D01*
X102319141Y-151397371D01*
X102319139Y-151397375D01*
X102263670Y-151531291D01*
X102263669Y-151531295D01*
X102244750Y-151675000D01*
X102092735Y-151675000D01*
X102071504Y-151595767D01*
X102071503Y-151595763D01*
X102015485Y-151498737D01*
X101936263Y-151419515D01*
X101839237Y-151363497D01*
X101839234Y-151363496D01*
X101839232Y-151363495D01*
X101731020Y-151334500D01*
X101731018Y-151334500D01*
X101368982Y-151334500D01*
X101368980Y-151334500D01*
X101260767Y-151363495D01*
X101260763Y-151363497D01*
X101163738Y-151419514D01*
X101163733Y-151419518D01*
X101084518Y-151498733D01*
X101084512Y-151498741D01*
X101061403Y-151538767D01*
X101024060Y-151567421D01*
X100977392Y-151561276D01*
X100957008Y-151542184D01*
X100890628Y-151442840D01*
X100772161Y-151324373D01*
X100772159Y-151324372D01*
X100632867Y-151231299D01*
X100632857Y-151231294D01*
X100478092Y-151167187D01*
X100478076Y-151167182D01*
X100313770Y-151134500D01*
X100313767Y-151134500D01*
X100146233Y-151134500D01*
X100146230Y-151134500D01*
X99981923Y-151167182D01*
X99981907Y-151167187D01*
X99827142Y-151231294D01*
X99827132Y-151231299D01*
X99687840Y-151324372D01*
X99687838Y-151324373D01*
X99569373Y-151442838D01*
X99569372Y-151442840D01*
X99476299Y-151582132D01*
X99476294Y-151582142D01*
X99412187Y-151736907D01*
X99412182Y-151736923D01*
X99379500Y-151901229D01*
X97447308Y-151901229D01*
X97445950Y-151890911D01*
X97390481Y-151756995D01*
X97302241Y-151641999D01*
X97205050Y-151567421D01*
X97187248Y-151553761D01*
X97187246Y-151553760D01*
X97187245Y-151553759D01*
X97053329Y-151498290D01*
X97053326Y-151498289D01*
X97053324Y-151498289D01*
X96909620Y-151479370D01*
X96765915Y-151498289D01*
X96765911Y-151498290D01*
X96631995Y-151553759D01*
X96631991Y-151553761D01*
X96516999Y-151641998D01*
X96507289Y-151654652D01*
X96466524Y-151678184D01*
X96421058Y-151665999D01*
X96409709Y-151654648D01*
X96392623Y-151632381D01*
X96392621Y-151632379D01*
X96277628Y-151544141D01*
X96277626Y-151544140D01*
X96277625Y-151544139D01*
X96143709Y-151488670D01*
X96143706Y-151488669D01*
X96143704Y-151488669D01*
X96000000Y-151469750D01*
X95856295Y-151488669D01*
X95856291Y-151488670D01*
X95722375Y-151544139D01*
X95722371Y-151544141D01*
X95607379Y-151632379D01*
X95519141Y-151747371D01*
X95519139Y-151747375D01*
X95463670Y-151881291D01*
X95463669Y-151881295D01*
X95444750Y-152025000D01*
X95446016Y-152034620D01*
X95463670Y-152168709D01*
X95467653Y-152178324D01*
X95497345Y-152250010D01*
X95497344Y-152297080D01*
X95464060Y-152330363D01*
X95432499Y-152334518D01*
X95349999Y-152323657D01*
X95206294Y-152342576D01*
X95206290Y-152342577D01*
X95072374Y-152398046D01*
X95072370Y-152398048D01*
X94957378Y-152486286D01*
X94869140Y-152601278D01*
X94869138Y-152601282D01*
X94813669Y-152735198D01*
X94794749Y-152878907D01*
X87925500Y-152878907D01*
X87925500Y-150176616D01*
X87925542Y-150175000D01*
X89794357Y-150175000D01*
X89814892Y-150422824D01*
X89814892Y-150422826D01*
X89875935Y-150663875D01*
X89875938Y-150663885D01*
X89975825Y-150891602D01*
X89975829Y-150891611D01*
X90111831Y-151099778D01*
X90111836Y-151099785D01*
X90280256Y-151282738D01*
X90280258Y-151282739D01*
X90280258Y-151282740D01*
X90333750Y-151324374D01*
X90476491Y-151435474D01*
X90695190Y-151553828D01*
X90930386Y-151634571D01*
X90930389Y-151634571D01*
X90930390Y-151634572D01*
X91041744Y-151653153D01*
X91175665Y-151675500D01*
X91424335Y-151675500D01*
X91625106Y-151641998D01*
X91669609Y-151634572D01*
X91669609Y-151634571D01*
X91669614Y-151634571D01*
X91904810Y-151553828D01*
X92123509Y-151435474D01*
X92319744Y-151282738D01*
X92488164Y-151099785D01*
X92624173Y-150891607D01*
X92724063Y-150663881D01*
X92785108Y-150422821D01*
X92805643Y-150175000D01*
X116294357Y-150175000D01*
X116314892Y-150422824D01*
X116314892Y-150422826D01*
X116375935Y-150663875D01*
X116375938Y-150663885D01*
X116475825Y-150891602D01*
X116475829Y-150891611D01*
X116611831Y-151099778D01*
X116611836Y-151099785D01*
X116780256Y-151282738D01*
X116780258Y-151282739D01*
X116780258Y-151282740D01*
X116833750Y-151324374D01*
X116976491Y-151435474D01*
X117195190Y-151553828D01*
X117430386Y-151634571D01*
X117430389Y-151634571D01*
X117430390Y-151634572D01*
X117541744Y-151653153D01*
X117675665Y-151675500D01*
X117924335Y-151675500D01*
X118125106Y-151641998D01*
X118169609Y-151634572D01*
X118169609Y-151634571D01*
X118169614Y-151634571D01*
X118404810Y-151553828D01*
X118623509Y-151435474D01*
X118819744Y-151282738D01*
X118988164Y-151099785D01*
X119124173Y-150891607D01*
X119224063Y-150663881D01*
X119285108Y-150422821D01*
X119305643Y-150175000D01*
X119285108Y-149927179D01*
X119285107Y-149927175D01*
X119285107Y-149927173D01*
X119244746Y-149767797D01*
X119224063Y-149686119D01*
X119124173Y-149458393D01*
X118988164Y-149250215D01*
X118819744Y-149067262D01*
X118819741Y-149067259D01*
X118623510Y-148914527D01*
X118623509Y-148914526D01*
X118404810Y-148796172D01*
X118169614Y-148715429D01*
X118169613Y-148715428D01*
X118169611Y-148715428D01*
X118169609Y-148715427D01*
X117924338Y-148674500D01*
X117924335Y-148674500D01*
X117675665Y-148674500D01*
X117675661Y-148674500D01*
X117430390Y-148715427D01*
X117430388Y-148715428D01*
X117195192Y-148796171D01*
X116976489Y-148914527D01*
X116780258Y-149067259D01*
X116780258Y-149067260D01*
X116611835Y-149250215D01*
X116611831Y-149250221D01*
X116475829Y-149458388D01*
X116475825Y-149458397D01*
X116375938Y-149686114D01*
X116375935Y-149686124D01*
X116314892Y-149927173D01*
X116314892Y-149927175D01*
X116294357Y-150175000D01*
X92805643Y-150175000D01*
X92785108Y-149927179D01*
X92785107Y-149927175D01*
X92785107Y-149927173D01*
X92744746Y-149767797D01*
X92724063Y-149686119D01*
X92624173Y-149458393D01*
X92488164Y-149250215D01*
X92319744Y-149067262D01*
X92319741Y-149067259D01*
X92123510Y-148914527D01*
X92123509Y-148914526D01*
X91904810Y-148796172D01*
X91669614Y-148715429D01*
X91669613Y-148715428D01*
X91669611Y-148715428D01*
X91669609Y-148715427D01*
X91424338Y-148674500D01*
X91424335Y-148674500D01*
X91175665Y-148674500D01*
X91175661Y-148674500D01*
X90930390Y-148715427D01*
X90930388Y-148715428D01*
X90695192Y-148796171D01*
X90476489Y-148914527D01*
X90280258Y-149067259D01*
X90280258Y-149067260D01*
X90111835Y-149250215D01*
X90111831Y-149250221D01*
X89975829Y-149458388D01*
X89975825Y-149458397D01*
X89875938Y-149686114D01*
X89875935Y-149686124D01*
X89814892Y-149927173D01*
X89814892Y-149927175D01*
X89794357Y-150175000D01*
X87925542Y-150175000D01*
X87925584Y-150173397D01*
X87942419Y-149852161D01*
X87943817Y-149825478D01*
X87944490Y-149819084D01*
X87950757Y-149779518D01*
X87998740Y-149476560D01*
X88000072Y-149470300D01*
X88089828Y-149135324D01*
X88091808Y-149129231D01*
X88216088Y-148805469D01*
X88218704Y-148799595D01*
X88231236Y-148775000D01*
X88376143Y-148490601D01*
X88379342Y-148485062D01*
X88568219Y-148194217D01*
X88571988Y-148189028D01*
X88784799Y-147926229D01*
X99379500Y-147926229D01*
X99379500Y-149393770D01*
X99412182Y-149558076D01*
X99412187Y-149558092D01*
X99476294Y-149712857D01*
X99476299Y-149712867D01*
X99568747Y-149851224D01*
X99569374Y-149852162D01*
X99687838Y-149970626D01*
X99727146Y-149996891D01*
X99827132Y-150063700D01*
X99827134Y-150063701D01*
X99827137Y-150063703D01*
X99827142Y-150063705D01*
X99981907Y-150127812D01*
X99981912Y-150127813D01*
X99981918Y-150127816D01*
X100146229Y-150160499D01*
X100146230Y-150160500D01*
X100146233Y-150160500D01*
X100313770Y-150160500D01*
X100313770Y-150160499D01*
X100478082Y-150127816D01*
X100632863Y-150063703D01*
X100772162Y-149970626D01*
X100890626Y-149852162D01*
X100983703Y-149712863D01*
X101047816Y-149558082D01*
X101080499Y-149393770D01*
X101080500Y-149393770D01*
X101080500Y-147926230D01*
X101080499Y-147926229D01*
X108019500Y-147926229D01*
X108019500Y-149393770D01*
X108052182Y-149558076D01*
X108052187Y-149558092D01*
X108116294Y-149712857D01*
X108116299Y-149712867D01*
X108208747Y-149851224D01*
X108209374Y-149852162D01*
X108327838Y-149970626D01*
X108367146Y-149996891D01*
X108467132Y-150063700D01*
X108467134Y-150063701D01*
X108467137Y-150063703D01*
X108467142Y-150063705D01*
X108621907Y-150127812D01*
X108621912Y-150127813D01*
X108621918Y-150127816D01*
X108786229Y-150160499D01*
X108786230Y-150160500D01*
X108786233Y-150160500D01*
X108953770Y-150160500D01*
X108953770Y-150160499D01*
X109118082Y-150127816D01*
X109272863Y-150063703D01*
X109412162Y-149970626D01*
X109530626Y-149852162D01*
X109623703Y-149712863D01*
X109687816Y-149558082D01*
X109720499Y-149393770D01*
X109720500Y-149393770D01*
X109720500Y-148775000D01*
X112644750Y-148775000D01*
X112663670Y-148918709D01*
X112719139Y-149052625D01*
X112807379Y-149167621D01*
X112922375Y-149255861D01*
X113056291Y-149311330D01*
X113200000Y-149330250D01*
X113343709Y-149311330D01*
X113477625Y-149255861D01*
X113592621Y-149167621D01*
X113680861Y-149052625D01*
X113736330Y-148918709D01*
X113755250Y-148775000D01*
X113736330Y-148631291D01*
X113680861Y-148497375D01*
X113592621Y-148382379D01*
X113477625Y-148294139D01*
X113343709Y-148238670D01*
X113343706Y-148238669D01*
X113343704Y-148238669D01*
X113200000Y-148219750D01*
X113056295Y-148238669D01*
X113056291Y-148238670D01*
X112922375Y-148294139D01*
X112922371Y-148294141D01*
X112807379Y-148382379D01*
X112719141Y-148497371D01*
X112719139Y-148497375D01*
X112663670Y-148631291D01*
X112644750Y-148775000D01*
X109720500Y-148775000D01*
X109720500Y-147926230D01*
X109720499Y-147926229D01*
X109687817Y-147761923D01*
X109687816Y-147761922D01*
X109687816Y-147761918D01*
X109687813Y-147761912D01*
X109687812Y-147761907D01*
X109623705Y-147607142D01*
X109623700Y-147607132D01*
X109576851Y-147537018D01*
X109530626Y-147467838D01*
X109412162Y-147349374D01*
X109411224Y-147348747D01*
X109272867Y-147256299D01*
X109272857Y-147256294D01*
X109118092Y-147192187D01*
X109118076Y-147192182D01*
X108953770Y-147159500D01*
X108953767Y-147159500D01*
X108786233Y-147159500D01*
X108786230Y-147159500D01*
X108621923Y-147192182D01*
X108621907Y-147192187D01*
X108467142Y-147256294D01*
X108467132Y-147256299D01*
X108327840Y-147349372D01*
X108327838Y-147349373D01*
X108209373Y-147467838D01*
X108209372Y-147467840D01*
X108116299Y-147607132D01*
X108116294Y-147607142D01*
X108052187Y-147761907D01*
X108052182Y-147761923D01*
X108019500Y-147926229D01*
X101080499Y-147926229D01*
X101047817Y-147761923D01*
X101047816Y-147761922D01*
X101047816Y-147761918D01*
X101047813Y-147761912D01*
X101047812Y-147761907D01*
X100983705Y-147607142D01*
X100983700Y-147607132D01*
X100936851Y-147537018D01*
X100890626Y-147467838D01*
X100772162Y-147349374D01*
X100771224Y-147348747D01*
X100632867Y-147256299D01*
X100632857Y-147256294D01*
X100478092Y-147192187D01*
X100478076Y-147192182D01*
X100313770Y-147159500D01*
X100313767Y-147159500D01*
X100146233Y-147159500D01*
X100146230Y-147159500D01*
X99981923Y-147192182D01*
X99981907Y-147192187D01*
X99827142Y-147256294D01*
X99827132Y-147256299D01*
X99687840Y-147349372D01*
X99687838Y-147349373D01*
X99569373Y-147467838D01*
X99569372Y-147467840D01*
X99476299Y-147607132D01*
X99476294Y-147607142D01*
X99412187Y-147761907D01*
X99412182Y-147761923D01*
X99379500Y-147926229D01*
X88784799Y-147926229D01*
X88790244Y-147919505D01*
X88794524Y-147914752D01*
X89039752Y-147669524D01*
X89044505Y-147665244D01*
X89314028Y-147446988D01*
X89319221Y-147443217D01*
X89610062Y-147254342D01*
X89615601Y-147251143D01*
X89924600Y-147093701D01*
X89930469Y-147091088D01*
X90254231Y-146966808D01*
X90260324Y-146964828D01*
X90595300Y-146875072D01*
X90601560Y-146873740D01*
X90944092Y-146819489D01*
X90950478Y-146818817D01*
X91298397Y-146800583D01*
X91301616Y-146800500D01*
X91328644Y-146800500D01*
X117771356Y-146800500D01*
X117798384Y-146800500D01*
X117801602Y-146800583D01*
G37*
%TD.AperFunction*%
%TD*%
M02*
